<mxfile host="Electron" modified="2023-08-29T19:41:02.085Z" agent="Mozilla/5.0 (X11; Linux x86_64) AppleWebKit/537.36 (KHTML, like Gecko) draw.io/21.6.8 Chrome/114.0.5735.289 Electron/25.5.0 Safari/537.36" version="21.6.8" etag="a7oowuEnJU3YeplIkHka" type="device">
  <diagram id="E81FOl-lE6Lnr4_-TLzr" name="OCI">
    <mxGraphModel dx="917" dy="562" grid="1" gridSize="10" guides="0" tooltips="1" connect="1" arrows="1" fold="1" page="1" pageScale="1" pageWidth="1169" pageHeight="827" background="#ffffff" math="0" shadow="1">
      <root>
        <mxCell id="0" />
        <object label="OCI Region" id="bEeLqk0NbVlQl-cdoFSH-5">
          <mxCell style="" parent="0" />
        </object>
        <mxCell id="bEeLqk0NbVlQl-cdoFSH-4" value="" style="rounded=1;whiteSpace=wrap;html=1;strokeColor=#CCCCCC;arcSize=2;fillColor=#f4f3ef;" parent="bEeLqk0NbVlQl-cdoFSH-5" vertex="1">
          <mxGeometry x="420" y="140" width="650" height="470" as="geometry" />
        </mxCell>
        <mxCell id="RxsMfDcLOCRluHv_QtyK-1" value="" style="shape=image;verticalLabelPosition=bottom;labelBackgroundColor=#ffffff;verticalAlign=top;aspect=fixed;imageAspect=0;image=https://external-content.duckduckgo.com/iu/?u=https://cdn2.downdetector.com/static/uploads/logo/oracle-cloud.png&amp;f=1&amp;nofb=1;" parent="bEeLqk0NbVlQl-cdoFSH-5" vertex="1">
          <mxGeometry x="440" y="150" width="120.01" height="40.78" as="geometry" />
        </mxCell>
        <mxCell id="bEeLqk0NbVlQl-cdoFSH-1" value="Compartment" style="" parent="0" />
        <mxCell id="fQNxAWbAHrpc_vXylquz-4" value="" style="whiteSpace=wrap;html=1;fillColor=none;dashed=1;strokeWidth=1.6;glass=0;shadow=0;rounded=0;perimeterSpacing=0;" parent="bEeLqk0NbVlQl-cdoFSH-1" vertex="1">
          <mxGeometry x="450" y="200" width="590" height="380" as="geometry" />
        </mxCell>
        <mxCell id="bEeLqk0NbVlQl-cdoFSH-92" value="Compartment" style="text;align=right;verticalAlign=middle;resizable=0;points=[];autosize=1;fontStyle=1;spacingLeft=4;html=1;" parent="bEeLqk0NbVlQl-cdoFSH-1" vertex="1">
          <mxGeometry x="870.002304526749" y="550" width="110" height="20" as="geometry" />
        </mxCell>
        <mxCell id="IkITS7SIopfHW4Zz3dju-6" value="" style="shape=image;verticalLabelPosition=bottom;verticalAlign=top;imageAspect=0;aspect=fixed;image=data:image/svg+xml,PHN2ZyB4bWxucz0iaHR0cDovL3d3dy53My5vcmcvMjAwMC9zdmciIHhtbG5zOnhsaW5rPSJodHRwOi8vd3d3LnczLm9yZy8xOTk5L3hsaW5rIiB2ZXJzaW9uPSIxLjEiIGlkPSJMYXllcl8xIiB4PSIwcHgiIHk9IjBweCIgdmlld0JveD0iMCAwIDUyLjQ1MDAwMDc2MjkzOTQ1IDQyIiBzdHlsZT0iZW5hYmxlLWJhY2tncm91bmQ6bmV3IDAgMCA1Mi40NSA0MjsiIHhtbDpzcGFjZT0icHJlc2VydmUiIHdpZHRoPSI1Mi40NTAwMDA3NjI5Mzk0NSIgaGVpZ2h0PSI0MiI+JiN4YTs8c3R5bGUgdHlwZT0idGV4dC9jc3MiPiYjeGE7CS5zdDB7ZmlsbDojRkZGRkZGO30mI3hhOwkuc3Qxe2ZpbGw6IzJDNTk2Nzt9JiN4YTs8L3N0eWxlPiYjeGE7PGc+JiN4YTsJPGc+JiN4YTsJCTxnPiYjeGE7CQkJPHBhdGggY2xhc3M9InN0MCIgZD0iTTAuNSw0MS41VjMuMzdjMC0xLjU4LDEuMjktMi44NywyLjg3LTIuODdoMTMuMDljMC45LDAsMS43NiwwLjQzLDIuMywxLjE2bDIuNjgsMy42aDI3LjY2JiMxMDsmIzk7JiM5OyYjOTsmIzk7YzEuNTgsMCwyLjg3LDEuMjksMi44NywyLjg3VjQxLjVIMC41eiIvPiYjeGE7CQkJPHBhdGggY2xhc3M9InN0MCIgZD0iTTE2LjQ2LDFjMC43NCwwLDEuNDUsMC4zNiwxLjksMC45NWwyLjgzLDMuOGgyNy45MWMxLjMsMCwyLjM3LDEuMDYsMi4zNywyLjM3VjQxSDFWMy4zNyYjMTA7JiM5OyYjOTsmIzk7JiM5O0MxLDIuMDYsMi4wNiwxLDMuMzcsMUgxNi40NiBNMTYuNDYsMEgzLjM3QzEuNTEsMCwwLDEuNTEsMCwzLjM3VjQxdjFoMWg1MC40NWgxdi0xVjguMTJjMC0xLjg2LTEuNTEtMy4zNy0zLjM3LTMuMzdoLTI3LjQmIzEwOyYjOTsmIzk7JiM5OyYjOTtsLTIuNTMtMy40QzE4LjUzLDAuNTEsMTcuNTIsMCwxNi40NiwwTDE2LjQ2LDB6Ii8+JiN4YTsJCTwvZz4mI3hhOwkJPGc+JiN4YTsJCQk8cGF0aCBjbGFzcz0ic3QxIiBkPSJNNDkuMDksNS43NkgyMS4xOGwtMi44My0zLjhDMTcuOTEsMS4zNiwxNy4yLDEsMTYuNDYsMUgzLjM3QzIuMDYsMSwxLDIuMDYsMSwzLjM3VjQxaDUwLjQ1VjguMTImIzEwOyYjOTsmIzk7JiM5OyYjOTtDNTEuNDUsNi44Miw1MC4zOSw1Ljc2LDQ5LjA5LDUuNzZ6IE00OS4zNSwzOC45SDMuMVYzLjM3YzAtMC4xNCwwLjEyLTAuMjYsMC4yNi0wLjI2aDEzLjA5YzAuMDgsMCwwLjE2LDAuMDQsMC4yMSwwLjExJiMxMDsmIzk7JiM5OyYjOTsmIzk7bDMuNDYsNC42NWgyOC45NmMwLjE0LDAsMC4yNiwwLjEyLDAuMjYsMC4yNlYzOC45eiIvPiYjeGE7CQkJPHBvbHlnb24gY2xhc3M9InN0MSIgcG9pbnRzPSI5LjE1LDEzLjY0IDExLjI1LDEzLjY0IDExLjI1LDEwLjQ5IDE0LjQsMTAuNDkgMTQuNCw4LjM5IDExLjI1LDguMzkgMTEuMjUsNS4yMyA5LjE1LDUuMjMgJiMxMDsmIzk7JiM5OyYjOTsmIzk7OS4xNSw4LjM5IDUuOTksOC4zOSA1Ljk5LDEwLjQ5IDkuMTUsMTAuNDkgJiM5OyYjOTsmIzk7Ii8+JiN4YTsJCQk8cGF0aCBjbGFzcz0ic3QxIiBkPSJNNDAuOTMsMjIuMzJsLTEuODQtMy4zbC0xLjgzLDMuM2wtMi43OCw1LjAybC0xLjczLDMuMTJoMy41N2g1LjU4aDMuNThsLTEuNzUtMy4xM0w0MC45MywyMi4zMnomIzEwOyYjOTsmIzk7JiM5OyYjOTsgTTM2LjMxLDI4LjM2bDIuNzgtNS4wMmwyLjgsNS4wMkgzNi4zMXoiLz4mI3hhOwkJCTxwYXRoIGNsYXNzPSJzdDEiIGQ9Ik0yOS41NiwyMC4yM2MtMC44OC0wLjU0LTEuODgtMC44My0yLjktMC44M2gwYy0wLjQzLDAtMC44NiwwLjA1LTEuMjcsMC4xNWMtMi45NiwwLjctNC44LDMuNjgtNC4xLDYuNjQmIzEwOyYjOTsmIzk7JiM5OyYjOTtjMC41OSwyLjUsMi44LDQuMjUsNS4zNyw0LjI1YzAuNDIsMCwwLjg1LTAuMDUsMS4yNi0wLjE1YzEuNDQtMC4zNCwyLjY1LTEuMjIsMy40My0yLjQ3YzAuNzctMS4yNSwxLjAxLTIuNzMsMC42OC00LjE3JiMxMDsmIzk7JiM5OyYjOTsmIzk7QzMxLjY5LDIyLjIyLDMwLjgxLDIxLDI5LjU2LDIwLjIzeiBNMjkuNTYsMjYuNzJjLTAuNDgsMC43OC0xLjIzLDEuMzItMi4xMiwxLjUzYy0wLjI2LDAuMDYtMC41MiwwLjA5LTAuNzgsMC4wOSYjMTA7JiM5OyYjOTsmIzk7JiM5O2MtMS41NSwwLTIuOTUtMS4wNi0zLjMzLTIuNjNjLTAuNDMtMS44MywwLjcxLTMuNjgsMi41NC00LjExYzAuMjYtMC4wNiwwLjUzLTAuMDksMC43OS0wLjA5YzAuNjMsMCwxLjI0LDAuMTcsMS43OSwwLjUxJiMxMDsmIzk7JiM5OyYjOTsmIzk7YzAuNzgsMC40OCwxLjMyLDEuMjMsMS41MywyLjEyQzMwLjE5LDI1LjAyLDMwLjA0LDI1Ljk0LDI5LjU2LDI2LjcyeiIvPiYjeGE7CQkJPHBhdGggY2xhc3M9InN0MSIgZD0iTTE2LjgzLDIwLjczbC0wLjYxLTEuMDRoLTEuMjFIMTEuMkg5Ljk5bC0wLjYxLDEuMDRsLTEuOTIsMy4yOGwtMC42MiwxLjA2bDAuNjIsMS4wNmwxLjkyLDMuMjlsMC42MSwxLjA0JiMxMDsmIzk7JiM5OyYjOTsmIzk7aDEuMjFoMy44MmgxLjIxbDAuNjEtMS4wNGwxLjkyLTMuMjlsMC42Mi0xLjA2bC0wLjYyLTEuMDZMMTYuODMsMjAuNzN6IE0xNS4wMiwyOC4zNkgxMS4ybC0xLjkyLTMuMjlsMS45Mi0zLjI4aDMuODJsMS45MiwzLjI4JiMxMDsmIzk7JiM5OyYjOTsmIzk7TDE1LjAyLDI4LjM2eiIvPiYjeGE7CQk8L2c+JiN4YTsJPC9nPiYjeGE7PC9nPiYjeGE7PC9zdmc+;" parent="bEeLqk0NbVlQl-cdoFSH-1" vertex="1">
          <mxGeometry x="990" y="540" width="52" height="42" as="geometry" />
        </mxCell>
        <mxCell id="1" value="VCN" style="" parent="0" />
        <mxCell id="JxKamzk-vWRHLU5l8SoQ-20" value="" style="whiteSpace=wrap;html=1;dashed=1;strokeWidth=1.6;glass=0;perimeterSpacing=0;fillColor=none;" parent="1" vertex="1">
          <mxGeometry x="480" y="230" width="440" height="300" as="geometry" />
        </mxCell>
        <mxCell id="ijau3eZvz0aqAHEWGo63-13" value="" style="group;" parent="1" vertex="1" connectable="0">
          <mxGeometry x="550" y="260" width="160" height="250" as="geometry" />
        </mxCell>
        <mxCell id="JxKamzk-vWRHLU5l8SoQ-21" value="" style="whiteSpace=wrap;html=1;dashed=1;strokeWidth=1.6;glass=0;perimeterSpacing=0;fillColor=none;" parent="ijau3eZvz0aqAHEWGo63-13" vertex="1">
          <mxGeometry width="160" height="250" as="geometry" />
        </mxCell>
        <mxCell id="bEeLqk0NbVlQl-cdoFSH-25" value="LB Subnet" style="text;html=1;strokeColor=none;fillColor=none;align=left;verticalAlign=middle;whiteSpace=wrap;rounded=0;dashed=1;fontStyle=1;spacingLeft=4;" parent="ijau3eZvz0aqAHEWGo63-13" vertex="1">
          <mxGeometry x="10" width="100" height="40" as="geometry" />
        </mxCell>
        <mxCell id="IkITS7SIopfHW4Zz3dju-4" value="" style="shape=image;verticalLabelPosition=bottom;verticalAlign=top;imageAspect=0;aspect=fixed;image=data:image/svg+xml,PHN2ZyB4bWxucz0iaHR0cDovL3d3dy53My5vcmcvMjAwMC9zdmciIHhtbG5zOnhsaW5rPSJodHRwOi8vd3d3LnczLm9yZy8xOTk5L3hsaW5rIiB2ZXJzaW9uPSIxLjEiIGlkPSJMYXllcl8xIiB4PSIwcHgiIHk9IjBweCIgdmlld0JveD0iMCAwIDQzLjUgNDIiIHN0eWxlPSJlbmFibGUtYmFja2dyb3VuZDpuZXcgMCAwIDQzLjUgNDI7IiB4bWw6c3BhY2U9InByZXNlcnZlIiB3aWR0aD0iNDMuNSIgaGVpZ2h0PSI0MiI+JiN4YTs8Zz4mI3hhOwk8Zz4mI3hhOwkJPHBhdGggc3R5bGU9ImZpbGw6I0ZGRkZGRjsiIGQ9Ik0zMS4yLDQxLjVjLTIuOCwwLTUuMy0yLTUuOS00LjhoLTcuMWMtMC42LDIuNy0zLDQuOC01LjksNC44Yy0zLjMsMC02LTIuNy02LTYmIzEwOyYjOTsmIzk7JiM5O2MwLTIuMSwxLjItNC4xLDMtNS4ybC0yLjItNi43Yy0wLjIsMC0wLjQsMC0wLjYsMGMtMy4zLDAtNi0yLjctNi02YzAtMy4zLDIuNy02LDYtNmMxLjUsMCwyLjksMC41LDQsMS42TDE2LjMsOSYjMTA7JiM5OyYjOTsmIzk7Yy0wLjMtMC44LTAuNS0xLjYtMC41LTIuNWMwLTMuMywyLjctNiw2LTZzNiwyLjcsNiw2YzAsMC44LTAuMiwxLjctMC41LDIuNWw1LjcsNC4yYzEuMS0xLDIuNS0xLjYsNC0xLjZjMy4zLDAsNiwyLjcsNiw2JiMxMDsmIzk7JiM5OyYjOTtzLTIuNyw2LTYsNmMtMC4yLDAtMC40LDAtMC42LDBsLTIuMiw2LjdjMS44LDEuMSwzLDMuMSwzLDUuMkMzNy4yLDM4LjgsMzQuNSw0MS41LDMxLjIsNDEuNXoiLz4mI3hhOwkJPHBhdGggc3R5bGU9ImZpbGw6I0ZGRkZGRjsiIGQ9Ik0yMS43LDFjMywwLDUuNSwyLjUsNS41LDUuNWMwLDAuOS0wLjIsMS44LTAuNywyLjZsNi40LDQuN2MxLTEuMSwyLjQtMS43LDQtMS43JiMxMDsmIzk7JiM5OyYjOTtjMywwLDUuNSwyLjUsNS41LDUuNWMwLDMtMi41LDUuNS01LjUsNS41Yy0wLjMsMC0wLjcsMC0xLTAuMWwtMi41LDcuNWMxLjgsMC45LDMuMSwyLjgsMy4xLDVjMCwzLTIuNSw1LjUtNS41LDUuNSYjMTA7JiM5OyYjOTsmIzk7Yy0yLjgsMC01LjEtMi4xLTUuNS00LjhoLTcuOWMtMC40LDIuNy0yLjcsNC44LTUuNSw0LjhjLTMsMC01LjUtMi41LTUuNS01LjVjMC0yLjIsMS4zLTQuMSwzLjEtNUw3LjUsMjNjLTAuMywwLjEtMC43LDAuMS0xLDAuMSYjMTA7JiM5OyYjOTsmIzk7Yy0zLDAtNS41LTIuNS01LjUtNS41czIuNS01LjUsNS41LTUuNWMxLjYsMCwzLDAuNyw0LDEuN2w2LjQtNC43Yy0wLjQtMC44LTAuNy0xLjctMC43LTIuNkMxNi4yLDMuNSwxOC43LDEsMjEuNywxIE0yMS43LDAmIzEwOyYjOTsmIzk7JiM5O2MtMy42LDAtNi41LDIuOS02LjUsNi41YzAsMC44LDAuMSwxLjYsMC40LDIuM2wtNS4xLDMuN2MtMS4xLTAuOS0yLjYtMS40LTQtMS40QzIuOSwxMS4xLDAsMTQsMCwxNy42czIuOSw2LjUsNi41LDYuNSYjMTA7JiM5OyYjOTsmIzk7YzAuMSwwLDAuMiwwLDAuMywwbDEuOSw2Yy0xLjgsMS4yLTIuOSwzLjItMi45LDUuNGMwLDMuNiwyLjksNi41LDYuNSw2LjVjMi45LDAsNS41LTIsNi4zLTQuOGg2LjNjMC44LDIuOCwzLjMsNC44LDYuMyw0LjgmIzEwOyYjOTsmIzk7JiM5O2MzLjYsMCw2LjUtMi45LDYuNS02LjVjMC0yLjItMS4xLTQuMi0yLjktNS40bDEuOS02YzAuMSwwLDAuMiwwLDAuMywwYzMuNiwwLDYuNS0yLjksNi41LTYuNWMwLTMuNi0yLjktNi41LTYuNS02LjUmIzEwOyYjOTsmIzk7JiM5O2MtMS41LDAtMi45LDAuNS00LjEsMS40bC01LjEtMy43YzAuMy0wLjcsMC40LTEuNSwwLjQtMi4zQzI4LjMsMi45LDI1LjMsMCwyMS43LDBMMjEuNywweiIvPiYjeGE7CTwvZz4mI3hhOwk8Zz4mI3hhOwkJPHBhdGggc3R5bGU9ImZpbGw6I0JCNTAxQzsiIGQ9Ik0zNywxMi4xYy0xLjYsMC0zLDAuNy00LDEuN2wtNi40LTQuN2MwLjQtMC44LDAuNy0xLjcsMC43LTIuNmMwLTMtMi41LTUuNS01LjUtNS41JiMxMDsmIzk7JiM5OyYjOTtzLTUuNSwyLjUtNS41LDUuNWMwLDAuOSwwLjIsMS44LDAuNywyLjZsLTYuNCw0LjdjLTEtMS0yLjQtMS43LTQtMS43Yy0zLDAtNS41LDIuNS01LjUsNS41czIuNSw1LjUsNS41LDUuNWMwLjMsMCwwLjcsMCwxLTAuMSYjMTA7JiM5OyYjOTsmIzk7bDIuNCw3LjVjLTEuOCwwLjktMy4xLDIuOC0zLjEsNWMwLDMsMi41LDUuNSw1LjUsNS41YzIuOCwwLDUuMS0yLjEsNS41LTQuOGg3LjljMC40LDIuNywyLjcsNC44LDUuNSw0LjhjMywwLDUuNS0yLjUsNS41LTUuNSYjMTA7JiM5OyYjOTsmIzk7YzAtMi4yLTEuMy00LjEtMy4xLTVMMzYsMjNjMC4zLDAuMSwwLjcsMC4xLDEsMC4xYzMsMCw1LjUtMi41LDUuNS01LjVTNDAsMTIuMSwzNywxMi4xeiBNMzEuMiwzOS41Yy0yLjIsMC00LTEuOC00LTQmIzEwOyYjOTsmIzk7JiM5O2MwLTIuMiwxLjgtNCw0LTRzNCwxLjgsNCw0QzM1LjIsMzcuNywzMy40LDM5LjUsMzEuMiwzOS41eiBNMTcuOCwzNC44Yy0wLjItMS4zLTAuOC0yLjQtMS43LTMuM2wzLTQuMmMwLjgsMC40LDEuNywwLjcsMi42LDAuNyYjMTA7JiM5OyYjOTsmIzk7YzAuOSwwLDEuOC0wLjIsMi42LTAuN2wzLDQuMmMtMC45LDAuOC0xLjUsMi0xLjcsMy4zSDE3Ljh6IE04LjMsMzUuNWMwLTIuMiwxLjgtNCw0LTRzNCwxLjgsNCw0YzAsMi4yLTEuOCw0LTQsNCYjMTA7JiM5OyYjOTsmIzk7UzguMywzNy43LDguMywzNS41eiBNNi41LDEzLjVjMi4yLDAsNCwxLjgsNCw0cy0xLjgsNC00LDRzLTQtMS44LTQtNFM0LjMsMTMuNSw2LjUsMTMuNXogTTE3LjcsNi41YzAtMi4yLDEuOC00LDQtNHM0LDEuOCw0LDQmIzEwOyYjOTsmIzk7JiM5O3MtMS44LDQtNCw0UzE3LjcsOC43LDE3LjcsNi41eiBNMzEuNiwxOC41bC00LjksMS42Yy0wLjgtMS42LTIuNC0yLjgtNC4yLTMuMVYxMmMxLjMtMC4yLDIuNC0wLjgsMy4yLTEuN2w2LjQsNC43JiMxMDsmIzk7JiM5OyYjOTtjLTAuNCwwLjgtMC43LDEuNy0wLjcsMi42QzMxLjUsMTcuOSwzMS41LDE4LjIsMzEuNiwxOC41eiBNMjUuOCwyMi41YzAsMi4yLTEuOCw0LTQsNHMtNC0xLjgtNC00czEuOC00LDQtNFMyNS44LDIwLjIsMjUuOCwyMi41eiYjMTA7JiM5OyYjOTsmIzk7IE0yMSwxMlYxN2MtMS45LDAuMy0zLjUsMS40LTQuMiwzLjFsLTQuOS0xLjZjMC4xLTAuMywwLjEtMC42LDAuMS0xYzAtMC45LTAuMi0xLjgtMC43LTIuNmw2LjQtNC43QzE4LjYsMTEuMiwxOS43LDExLjgsMjEsMTJ6JiMxMDsmIzk7JiM5OyYjOTsgTTExLjUsMTkuOWw0LjksMS42Yy0wLjEsMC4zLTAuMSwwLjYtMC4xLDFjMCwxLjYsMC43LDMsMS43LDRsLTMsNC4yYy0wLjgtMC40LTEuNy0wLjctMi42LTAuN2MtMC4zLDAtMC43LDAtMSwwLjFsLTIuNC03LjUmIzEwOyYjOTsmIzk7JiM5O0MxMCwyMiwxMC45LDIxLjEsMTEuNSwxOS45eiBNMzEuMiwzMGMtMC45LDAtMS44LDAuMi0yLjYsMC43bC0zLTQuMmMxLjEtMSwxLjctMi40LDEuNy00YzAtMC4zLDAtMC43LTAuMS0xbDQuOS0xLjYmIzEwOyYjOTsmIzk7JiM5O2MwLjUsMS4xLDEuNSwyLDIuNiwyLjZsLTIuNSw3LjVDMzEuOCwzMCwzMS41LDMwLDMxLjIsMzB6IE0zMywxNy42YzAtMi4yLDEuOC00LDQtNHM0LDEuOCw0LDRzLTEuOCw0LTQsNFMzMywxOS44LDMzLDE3LjZ6Ii8+JiN4YTsJPC9nPiYjeGE7PC9nPiYjeGE7PC9zdmc+;" parent="1" vertex="1">
          <mxGeometry x="470" y="211" width="42.4" height="40.47" as="geometry" />
        </mxCell>
        <mxCell id="bEeLqk0NbVlQl-cdoFSH-27" value="VCN" style="text;html=1;strokeColor=none;fillColor=none;align=left;verticalAlign=middle;whiteSpace=wrap;rounded=0;fontStyle=1;spacingLeft=4;" parent="1" vertex="1">
          <mxGeometry x="490" y="250" width="40" height="40" as="geometry" />
        </mxCell>
        <mxCell id="ijau3eZvz0aqAHEWGo63-12" value="" style="group;" parent="1" vertex="1" connectable="0">
          <mxGeometry x="730" y="260" width="160" height="250" as="geometry" />
        </mxCell>
        <mxCell id="fQNxAWbAHrpc_vXylquz-10" value="" style="whiteSpace=wrap;html=1;dashed=1;strokeWidth=1.6;glass=0;perimeterSpacing=0;gradientColor=#97d077;fillColor=none;" parent="ijau3eZvz0aqAHEWGo63-12" vertex="1">
          <mxGeometry width="160" height="250" as="geometry" />
        </mxCell>
        <mxCell id="bEeLqk0NbVlQl-cdoFSH-26" value="VM Subnet" style="text;html=1;strokeColor=none;fillColor=none;align=left;verticalAlign=middle;whiteSpace=wrap;rounded=0;dashed=1;fontStyle=1;spacingLeft=4;spacing=2;" parent="ijau3eZvz0aqAHEWGo63-12" vertex="1">
          <mxGeometry x="10" width="100" height="40" as="geometry" />
        </mxCell>
        <object label="Components" id="bEeLqk0NbVlQl-cdoFSH-10">
          <mxCell style="" parent="0" />
        </object>
        <mxCell id="o463Dz1BxFJm6jyn4p84-30" value="" style="endArrow=classicThin;startArrow=classicThin;html=1;fontColor=#FF0000;exitX=1;exitY=0.5;exitDx=0;exitDy=0;dashed=1;entryX=0;entryY=0.5;entryDx=0;entryDy=0;dashPattern=1 2;startFill=1;endFill=1;jumpStyle=none;jumpSize=6;startSize=4;endSize=4;" parent="bEeLqk0NbVlQl-cdoFSH-10" source="IkITS7SIopfHW4Zz3dju-7" target="IkITS7SIopfHW4Zz3dju-3" edge="1">
          <mxGeometry width="50" height="50" relative="1" as="geometry">
            <mxPoint x="520" y="370" as="sourcePoint" />
            <mxPoint x="570" y="370" as="targetPoint" />
          </mxGeometry>
        </mxCell>
        <mxCell id="o463Dz1BxFJm6jyn4p84-26" value="" style="endArrow=classicThin;startArrow=classicThin;html=1;fontColor=#FF0000;exitX=1;exitY=0.5;exitDx=0;exitDy=0;dashed=1;entryX=0;entryY=0.5;entryDx=0;entryDy=0;dashPattern=1 2;startFill=1;endFill=1;jumpStyle=none;jumpSize=6;startSize=4;endSize=4;" parent="bEeLqk0NbVlQl-cdoFSH-10" source="IkITS7SIopfHW4Zz3dju-3" target="IkITS7SIopfHW4Zz3dju-1" edge="1">
          <mxGeometry width="50" height="50" relative="1" as="geometry">
            <mxPoint x="610" y="380" as="sourcePoint" />
            <mxPoint x="570" y="370" as="targetPoint" />
          </mxGeometry>
        </mxCell>
        <mxCell id="bEeLqk0NbVlQl-cdoFSH-33" value="" style="endArrow=classicThin;startArrow=classicThin;html=1;fontColor=#FF0000;exitX=1;exitY=0.5;exitDx=0;exitDy=0;entryX=0;entryY=0.5;entryDx=0;entryDy=0;dashed=1;dashPattern=1 2;startFill=1;endFill=1;jumpStyle=none;jumpSize=6;startSize=4;endSize=4;" parent="bEeLqk0NbVlQl-cdoFSH-10" source="IkITS7SIopfHW4Zz3dju-1" target="IkITS7SIopfHW4Zz3dju-12" edge="1">
          <mxGeometry width="50" height="50" relative="1" as="geometry">
            <mxPoint x="620" y="380" as="sourcePoint" />
            <mxPoint x="750" y="370" as="targetPoint" />
          </mxGeometry>
        </mxCell>
        <mxCell id="o463Dz1BxFJm6jyn4p84-38" style="edgeStyle=orthogonalEdgeStyle;rounded=0;orthogonalLoop=1;jettySize=auto;html=1;exitX=0;exitY=0.5;exitDx=0;exitDy=0;entryX=1;entryY=0.5;entryDx=0;entryDy=0;dashed=1;startArrow=classicThin;startFill=1;endArrow=classicThin;endFill=1;dashPattern=1 2;jumpStyle=none;jumpSize=6;startSize=4;endSize=4;" parent="bEeLqk0NbVlQl-cdoFSH-10" source="IkITS7SIopfHW4Zz3dju-14" target="IkITS7SIopfHW4Zz3dju-12" edge="1">
          <mxGeometry relative="1" as="geometry">
            <mxPoint x="830" y="410" as="sourcePoint" />
            <mxPoint x="790" y="370" as="targetPoint" />
          </mxGeometry>
        </mxCell>
        <mxCell id="o463Dz1BxFJm6jyn4p84-41" style="edgeStyle=orthogonalEdgeStyle;rounded=0;orthogonalLoop=1;jettySize=auto;html=1;exitX=1;exitY=0.5;exitDx=0;exitDy=0;entryX=0.5;entryY=1;entryDx=0;entryDy=0;dashed=1;startArrow=classicThin;startFill=1;endArrow=openThin;endFill=0;dashPattern=1 2;jumpStyle=none;jumpSize=6;startSize=4;endSize=4;" parent="bEeLqk0NbVlQl-cdoFSH-10" source="IkITS7SIopfHW4Zz3dju-14" target="JxKamzk-vWRHLU5l8SoQ-3" edge="1">
          <mxGeometry relative="1" as="geometry">
            <mxPoint x="870" y="410" as="sourcePoint" />
            <mxPoint x="940" y="361" as="targetPoint" />
          </mxGeometry>
        </mxCell>
        <mxCell id="IkITS7SIopfHW4Zz3dju-3" value="" style="shape=image;verticalLabelPosition=bottom;verticalAlign=top;imageAspect=0;aspect=fixed;image=data:image/svg+xml,PHN2ZyB4bWxucz0iaHR0cDovL3d3dy53My5vcmcvMjAwMC9zdmciIHhtbG5zOnhsaW5rPSJodHRwOi8vd3d3LnczLm9yZy8xOTk5L3hsaW5rIiB2ZXJzaW9uPSIxLjEiIGlkPSJMYXllcl8xIiB4PSIwcHgiIHk9IjBweCIgdmlld0JveD0iMCAwIDMyLjM5OTk5NzcxMTE4MTY0IDQyLjE5OTk5Njk0ODI0MjE5IiBzdHlsZT0iZW5hYmxlLWJhY2tncm91bmQ6bmV3IDAgMCAzMi4zIDQyLjI7IiB4bWw6c3BhY2U9InByZXNlcnZlIiB3aWR0aD0iMzIuMzk5OTk3NzExMTgxNjQiIGhlaWdodD0iNDIuMTk5OTk2OTQ4MjQyMTkiPiYjeGE7PGc+JiN4YTsJPGc+JiN4YTsJCTxwYXRoIHN0eWxlPSJmaWxsOiNGRkZGRkY7IiBkPSJNMTUuOCw0MS41QzgsMzguNiw0LjMsMzMuNiwyLjUsMjkuOGMtMi00LjMtMi03LjktMi04LjFWNy4zbDE1LjctNi43bDE1LjYsNi43djE0LjUmIzEwOyYjOTsmIzk7JiM5O2MwLDAuNi0wLjIsMTQuMi0xNS4xLDE5LjdsLTAuNCwwLjJMMTUuOCw0MS41eiIvPiYjeGE7CQk8cGF0aCBzdHlsZT0iZmlsbDojRkZGRkZGOyIgZD0iTTE2LjIsMS4xbDE1LjEsNi41djE0LjJjMCwwLjYtMC4yLDEzLjgtMTQuOCwxOS4ybC0wLjMsMC4xTDE2LDQxQzguMywzOC4yLDQuNywzMy4zLDMsMjkuNiYjMTA7JiM5OyYjOTsmIzk7Yy0xLjktNC4xLTItNy43LTItNy44VjcuNkwxNi4yLDEuMSBNMTYuMiwwbC0wLjQsMC4yTDAuNiw2LjdMMCw2Ljl2MC43djE0LjJjMCwwLjIsMCwzLjksMi4xLDguM2MxLjgsMy44LDUuNiw5LDEzLjYsMTEuOSYjMTA7JiM5OyYjOTsmIzk7bDAuMywwLjFsMC4zLDAuMWwwLjMtMC4xbDAuMy0wLjFjMTUuMy01LjYsMTUuNS0xOS42LDE1LjUtMjAuMlY3LjZWNi45bC0wLjYtMC4zTDE2LjYsMC4yTDE2LjIsMEwxNi4yLDB6Ii8+JiN4YTsJPC9nPiYjeGE7CTxnPiYjeGE7CQk8cGF0aCBzdHlsZT0iZmlsbDpub25lOyIgZD0iTTIuNSw4LjZ2MTMuMmMwLDAuMSwwLDMuNCwxLjgsNy4yYzIuMyw0LjksNi4zLDguNCwxMS45LDEwLjVjMTMuNC01LjEsMTMuNi0xNy4yLDEzLjYtMTcuN1Y4LjYmIzEwOyYjOTsmIzk7JiM5O0wxNi4yLDIuN0wyLjUsOC42eiBNMTYuMSwyOC4zSDd2LTEuNWg5LjFWMjguM3ogTTE2LjEsMjEuNUg3VjIwaDkuMVYyMS41eiBNMTYuMSwxNC4ySDd2LTEuNWg5LjFWMTQuMnogTTIwLjIsMTIuN2wxLjIsMS4ybDMtMyYjMTA7JiM5OyYjOTsmIzk7bDEsMWwtNCw0bC0yLjItMi4yTDIwLjIsMTIuN3ogTTI0LjgsMjIuMmwtMSwxbC0xLjUtMS41bC0xLjUsMS41bC0xLTFsMS41LTEuNWwtMS41LTEuNWwxLTFsMS41LDEuNWwxLjUtMS41bDEsMWwtMS41LDEuNSYjMTA7JiM5OyYjOTsmIzk7TDI0LjgsMjIuMnogTTIwLjIsMjYuOGwxLjIsMS4ybDMtM2wxLDFsLTQsNGwtMi4yLTIuMkwyMC4yLDI2Ljh6Ii8+JiN4YTsJCTxwYXRoIHN0eWxlPSJmaWxsOiNCQjUwMUM7IiBkPSJNMTYuMiwxLjFMMSw3LjZ2MTQuMmMwLDAuMSwwLDMuNywyLDcuOGMxLjcsMy43LDUuNCw4LjYsMTMsMTEuNGwwLjMsMC4xbDAuMy0wLjEmIzEwOyYjOTsmIzk7JiM5O2MxNC42LTUuNCwxNC44LTE4LjcsMTQuOC0xOS4yVjcuNkwxNi4yLDEuMXogTTI5LjgsMjEuOGMwLDAuNS0wLjIsMTIuNi0xMy42LDE3LjdDMTAuNiwzNy40LDYuNiwzMy45LDQuMywyOSYjMTA7JiM5OyYjOTsmIzk7Yy0xLjgtMy45LTEuOC03LjEtMS44LTcuMlY4LjZsMTMuNy01LjlsMTMuNiw1LjlWMjEuOHoiLz4mI3hhOwkJPHJlY3QgeD0iNyIgeT0iMTIuNyIgc3R5bGU9ImZpbGw6I0JCNTAxQzsiIHdpZHRoPSI5LjEiIGhlaWdodD0iMS41Ii8+JiN4YTsJCTxwb2x5Z29uIHN0eWxlPSJmaWxsOiNCQjUwMUM7IiBwb2ludHM9IjI1LjQsMTIgMjQuMywxMSAyMS40LDEzLjkgMjAuMiwxMi43IDE5LjEsMTMuOCAyMS40LDE2ICYjOTsmIzk7Ii8+JiN4YTsJCTxyZWN0IHg9IjciIHk9IjIwIiBzdHlsZT0iZmlsbDojQkI1MDFDOyIgd2lkdGg9IjkuMSIgaGVpZ2h0PSIxLjUiLz4mI3hhOwkJPHBvbHlnb24gc3R5bGU9ImZpbGw6I0JCNTAxQzsiIHBvaW50cz0iMjMuOCwxOC4xIDIyLjMsMTkuNyAyMC43LDE4LjEgMTkuNywxOS4yIDIxLjIsMjAuNyAxOS43LDIyLjIgMjAuNywyMy4zIDIyLjMsMjEuOCAmIzEwOyYjOTsmIzk7JiM5OzIzLjgsMjMuMyAyNC44LDIyLjIgMjMuMywyMC43IDI0LjgsMTkuMiAmIzk7JiM5OyIvPiYjeGE7CQk8cmVjdCB4PSI3IiB5PSIyNi44IiBzdHlsZT0iZmlsbDojQkI1MDFDOyIgd2lkdGg9IjkuMSIgaGVpZ2h0PSIxLjUiLz4mI3hhOwkJPHBvbHlnb24gc3R5bGU9ImZpbGw6I0JCNTAxQzsiIHBvaW50cz0iMjUuNCwyNi4xIDI0LjMsMjUuMSAyMS40LDI4IDIwLjIsMjYuOCAxOS4xLDI3LjkgMjEuNCwzMC4xICYjOTsmIzk7Ii8+JiN4YTsJPC9nPiYjeGE7PC9nPiYjeGE7PC9zdmc+;" parent="bEeLqk0NbVlQl-cdoFSH-10" vertex="1">
          <mxGeometry x="580" y="340" width="32" height="42" as="geometry" />
        </mxCell>
        <mxCell id="IkITS7SIopfHW4Zz3dju-12" value="" style="shape=image;verticalLabelPosition=bottom;verticalAlign=top;imageAspect=0;aspect=fixed;image=data:image/svg+xml,PHN2ZyB4bWxucz0iaHR0cDovL3d3dy53My5vcmcvMjAwMC9zdmciIHhtbG5zOnhsaW5rPSJodHRwOi8vd3d3LnczLm9yZy8xOTk5L3hsaW5rIiB2ZXJzaW9uPSIxLjEiIGlkPSJMYXllcl8xIiB4PSIwcHgiIHk9IjBweCIgdmlld0JveD0iMCAwIDMyLjM5OTk5NzcxMTE4MTY0IDQyLjE5OTk5Njk0ODI0MjE5IiBzdHlsZT0iZW5hYmxlLWJhY2tncm91bmQ6bmV3IDAgMCAzMi4zIDQyLjI7IiB4bWw6c3BhY2U9InByZXNlcnZlIiB3aWR0aD0iMzIuMzk5OTk3NzExMTgxNjQiIGhlaWdodD0iNDIuMTk5OTk2OTQ4MjQyMTkiPiYjeGE7PGc+JiN4YTsJPGc+JiN4YTsJCTxwYXRoIHN0eWxlPSJmaWxsOiNGRkZGRkY7IiBkPSJNMTUuOCw0MS41QzgsMzguNiw0LjMsMzMuNiwyLjUsMjkuOGMtMi00LjMtMi03LjktMi04LjFWNy4zbDE1LjctNi43bDE1LjYsNi43djE0LjUmIzEwOyYjOTsmIzk7JiM5O2MwLDAuNi0wLjIsMTQuMi0xNS4xLDE5LjdsLTAuNCwwLjJMMTUuOCw0MS41eiIvPiYjeGE7CQk8cGF0aCBzdHlsZT0iZmlsbDojRkZGRkZGOyIgZD0iTTE2LjIsMS4xbDE1LjEsNi41djE0LjJjMCwwLjYtMC4yLDEzLjgtMTQuOCwxOS4ybC0wLjMsMC4xTDE2LDQxQzguMywzOC4yLDQuNywzMy4zLDMsMjkuNiYjMTA7JiM5OyYjOTsmIzk7Yy0xLjktNC4xLTItNy43LTItNy44VjcuNkwxNi4yLDEuMSBNMTYuMiwwbC0wLjQsMC4yTDAuNiw2LjdMMCw2Ljl2MC43djE0LjJjMCwwLjIsMCwzLjksMi4xLDguM2MxLjgsMy44LDUuNiw5LDEzLjYsMTEuOSYjMTA7JiM5OyYjOTsmIzk7bDAuMywwLjFsMC4zLDAuMWwwLjMtMC4xbDAuMy0wLjFjMTUuMy01LjYsMTUuNS0xOS42LDE1LjUtMjAuMlY3LjZWNi45bC0wLjYtMC4zTDE2LjYsMC4yTDE2LjIsMEwxNi4yLDB6Ii8+JiN4YTsJPC9nPiYjeGE7CTxnPiYjeGE7CQk8cGF0aCBzdHlsZT0iZmlsbDpub25lOyIgZD0iTTIuNSw4LjZ2MTMuMmMwLDAuMSwwLDMuNCwxLjgsNy4yYzIuMyw0LjksNi4zLDguNCwxMS45LDEwLjVjMTMuNC01LjEsMTMuNi0xNy4yLDEzLjYtMTcuN1Y4LjYmIzEwOyYjOTsmIzk7JiM5O0wxNi4yLDIuN0wyLjUsOC42eiBNMTYuMSwyOC4zSDd2LTEuNWg5LjFWMjguM3ogTTE2LjEsMjEuNUg3VjIwaDkuMVYyMS41eiBNMTYuMSwxNC4ySDd2LTEuNWg5LjFWMTQuMnogTTIwLjIsMTIuN2wxLjIsMS4ybDMtMyYjMTA7JiM5OyYjOTsmIzk7bDEsMWwtNCw0bC0yLjItMi4yTDIwLjIsMTIuN3ogTTI0LjgsMjIuMmwtMSwxbC0xLjUtMS41bC0xLjUsMS41bC0xLTFsMS41LTEuNWwtMS41LTEuNWwxLTFsMS41LDEuNWwxLjUtMS41bDEsMWwtMS41LDEuNSYjMTA7JiM5OyYjOTsmIzk7TDI0LjgsMjIuMnogTTIwLjIsMjYuOGwxLjIsMS4ybDMtM2wxLDFsLTQsNGwtMi4yLTIuMkwyMC4yLDI2Ljh6Ii8+JiN4YTsJCTxwYXRoIHN0eWxlPSJmaWxsOiNCQjUwMUM7IiBkPSJNMTYuMiwxLjFMMSw3LjZ2MTQuMmMwLDAuMSwwLDMuNywyLDcuOGMxLjcsMy43LDUuNCw4LjYsMTMsMTEuNGwwLjMsMC4xbDAuMy0wLjEmIzEwOyYjOTsmIzk7JiM5O2MxNC42LTUuNCwxNC44LTE4LjcsMTQuOC0xOS4yVjcuNkwxNi4yLDEuMXogTTI5LjgsMjEuOGMwLDAuNS0wLjIsMTIuNi0xMy42LDE3LjdDMTAuNiwzNy40LDYuNiwzMy45LDQuMywyOSYjMTA7JiM5OyYjOTsmIzk7Yy0xLjgtMy45LTEuOC03LjEtMS44LTcuMlY4LjZsMTMuNy01LjlsMTMuNiw1LjlWMjEuOHoiLz4mI3hhOwkJPHJlY3QgeD0iNyIgeT0iMTIuNyIgc3R5bGU9ImZpbGw6I0JCNTAxQzsiIHdpZHRoPSI5LjEiIGhlaWdodD0iMS41Ii8+JiN4YTsJCTxwb2x5Z29uIHN0eWxlPSJmaWxsOiNCQjUwMUM7IiBwb2ludHM9IjI1LjQsMTIgMjQuMywxMSAyMS40LDEzLjkgMjAuMiwxMi43IDE5LjEsMTMuOCAyMS40LDE2ICYjOTsmIzk7Ii8+JiN4YTsJCTxyZWN0IHg9IjciIHk9IjIwIiBzdHlsZT0iZmlsbDojQkI1MDFDOyIgd2lkdGg9IjkuMSIgaGVpZ2h0PSIxLjUiLz4mI3hhOwkJPHBvbHlnb24gc3R5bGU9ImZpbGw6I0JCNTAxQzsiIHBvaW50cz0iMjMuOCwxOC4xIDIyLjMsMTkuNyAyMC43LDE4LjEgMTkuNywxOS4yIDIxLjIsMjAuNyAxOS43LDIyLjIgMjAuNywyMy4zIDIyLjMsMjEuOCAmIzEwOyYjOTsmIzk7JiM5OzIzLjgsMjMuMyAyNC44LDIyLjIgMjMuMywyMC43IDI0LjgsMTkuMiAmIzk7JiM5OyIvPiYjeGE7CQk8cmVjdCB4PSI3IiB5PSIyNi44IiBzdHlsZT0iZmlsbDojQkI1MDFDOyIgd2lkdGg9IjkuMSIgaGVpZ2h0PSIxLjUiLz4mI3hhOwkJPHBvbHlnb24gc3R5bGU9ImZpbGw6I0JCNTAxQzsiIHBvaW50cz0iMjUuNCwyNi4xIDI0LjMsMjUuMSAyMS40LDI4IDIwLjIsMjYuOCAxOS4xLDI3LjkgMjEuNCwzMC4xICYjOTsmIzk7Ii8+JiN4YTsJPC9nPiYjeGE7PC9nPiYjeGE7PC9zdmc+;" parent="bEeLqk0NbVlQl-cdoFSH-10" vertex="1">
          <mxGeometry x="750" y="340" width="32" height="42" as="geometry" />
        </mxCell>
        <mxCell id="L4qmsvul19SNDsAjtxIQ-31" value="" style="endArrow=classicThin;startArrow=classicThin;html=1;fontColor=#FF0000;exitX=0.875;exitY=0.5;exitDx=0;exitDy=0;entryX=0;entryY=0.5;entryDx=0;entryDy=0;dashed=1;dashPattern=1 2;startFill=1;endFill=1;jumpStyle=none;jumpSize=6;startSize=4;endSize=4;exitPerimeter=0;" parent="bEeLqk0NbVlQl-cdoFSH-10" source="ijau3eZvz0aqAHEWGo63-2" target="IkITS7SIopfHW4Zz3dju-7" edge="1">
          <mxGeometry width="50" height="50" relative="1" as="geometry">
            <mxPoint x="307" y="361" as="sourcePoint" />
            <mxPoint x="491" y="371" as="targetPoint" />
          </mxGeometry>
        </mxCell>
        <mxCell id="JxKamzk-vWRHLU5l8SoQ-8" value="" style="group;" parent="bEeLqk0NbVlQl-cdoFSH-10" vertex="1" connectable="0">
          <mxGeometry x="952.0099999999999" y="260" width="46" height="60" as="geometry" />
        </mxCell>
        <mxCell id="IkITS7SIopfHW4Zz3dju-21" value="" style="shape=image;verticalLabelPosition=bottom;verticalAlign=top;imageAspect=0;aspect=fixed;image=data:image/svg+xml,PHN2ZyB4bWxucz0iaHR0cDovL3d3dy53My5vcmcvMjAwMC9zdmciIHhtbG5zOnhsaW5rPSJodHRwOi8vd3d3LnczLm9yZy8xOTk5L3hsaW5rIiB2ZXJzaW9uPSIxLjEiIGlkPSJMYXllcl8xIiB4PSIwcHgiIHk9IjBweCIgdmlld0JveD0iMCAwIDQ1LjcwMDAwNDU3NzYzNjcyIDQxLjkwMDAwMTUyNTg3ODkwNiIgc3R5bGU9ImVuYWJsZS1iYWNrZ3JvdW5kOm5ldyAwIDAgNDYgNDI7IiB4bWw6c3BhY2U9InByZXNlcnZlIiB3aWR0aD0iNDUuNzAwMDA0NTc3NjM2NzIiIGhlaWdodD0iNDEuOTAwMDAxNTI1ODc4OTA2Ij4mI3hhOzxnPiYjeGE7CTxwYXRoIHN0eWxlPSJmaWxsOiNGRkZGRkY7IiBkPSJNMjIuOSw0MS41bDAtMC41bC0wLjEsMC41bC0wLjcsMHYwQzEyLjgsNDEuMSw1LjEsMzQsNCwyNC45bC0xLjUsMS41bC0xLjgtMS44TDQsMjEuMyYjMTA7JiM5OyYjOTtjMC4xLTEsMC4yLTEuOSwwLjUtMi45Yy0xLjktMS0zLjEtMy0zLjEtNS4yYzAtMy4zLDIuNi01LjksNS45LTUuOWMxLjIsMCwyLjQsMC40LDMuNCwxLjFjMy4xLTIuNiw2LjktNC4xLDExLTQuNCYjMTA7JiM5OyYjOTtDMjIsNCwyMi40LDQsMjIuNyw0bDEuMSwwbDAsMGMwLDAsMCwwLDAsMGMxLjQtMi4yLDMuOS0zLjUsNi41LTMuNWMzLjcsMCw2LjksMi43LDcuNiw2LjJsMS4xLTEuMWwxLjgsMS44bC0wLjEsMC4xbC0wLjMsMC4zJiMxMDsmIzk7JiM5O2wtMi45LDIuOWMyLjMsMi43LDMuNyw2LDQuMiw5LjVsMS44LTEuOGwxLjgsMS44bC0zLjUsMy41Yy0wLjEsMS4xLTAuMiwyLjEtMC41LDMuMmMxLjgsMS4xLDMsMywzLDUuMWMwLDMuMy0yLjYsNS45LTUuOSw1LjkmIzEwOyYjOTsmIzk7Yy0xLjEsMC0yLjItMC4zLTMuMi0xYy0xLjgsMS41LTMuOCwyLjctNi4xLDMuNUwyOSw0MC41Yy0wLjQsMC4xLTAuNywwLjItMS4xLDAuM2wtMC4yLDBjLTAuMSwwLTAuMiwwLjEtMC4yLDAuMUwyNyw0MS4xbDAsMCYjMTA7JiM5OyYjOTtjLTAuMiwwLTAuNCwwLjEtMC42LDAuMXYwbC0wLjUsMC4xYy0wLjIsMC0wLjMsMC0wLjUsMC4xYzAsMC0wLjYsMC4xLTAuNywwLjFDMjQsNDEuNSwyMy41LDQxLjUsMjIuOSw0MS41TDIyLjksNDEuNXoiLz4mI3hhOwk8cGF0aCBzdHlsZT0iZmlsbDojRkZGRkZGOyIgZD0iTTMwLjMsMWMzLjgsMCw3LDMsNy4zLDYuOGwxLjQtMS40bDEuMSwxLjFsMCwwbDAsMGwtMy4yLDMuMmMyLjYsMi45LDQuMiw2LjYsNC41LDEwLjZsMi4yLTIuMiYjMTA7JiM5OyYjOTtsMS4xLDEuMWwtMy4yLDMuMmMtMC4xLDEuMy0wLjIsMi41LTAuNSwzLjZjMS44LDAuOSwzLDIuNywzLDQuOGMwLDMtMi40LDUuNC01LjQsNS40Yy0xLjIsMC0yLjMtMC40LTMuMi0xLjEmIzEwOyYjOTsmIzk7Yy0xLjgsMS42LTMuOSwyLjgtNi4yLDMuNmMtMC4xLDAtMC4xLDAtMC4yLDAuMWMtMC40LDAuMS0wLjcsMC4yLTEuMSwwLjNjLTAuMSwwLTAuMywwLjEtMC40LDAuMWwwLDBjLTAuNSwwLjEtMSwwLjItMS42LDAuM2wwLDAmIzEwOyYjOTsmIzk7Yy0wLjIsMC0wLjUsMC4xLTAuNywwLjFjLTAuMSwwLTAuMywwLTAuNCwwLjFDMjQuMSw0MSwyMy41LDQxLDIyLjksNDFjMCwwLDAsMC0wLjEsMGMwLDAsMCwwLDAsMGMwLDAsMCwwLDAsMGMtMC4xLDAtMC4yLDAtMC4yLDAmIzEwOyYjOTsmIzk7bDAsMEMxMi45LDQwLjksNSwzMy4zLDQuNCwyMy43bC0xLjksMS45bC0xLjEtMS4xbDMtM2MwLjEtMS4yLDAuMy0yLjMsMC42LTMuNGMtMS45LTAuOC0zLjItMi43LTMuMi00LjljMC0zLDIuNC01LjQsNS40LTUuNCYjMTA7JiM5OyYjOTtjMS4zLDAsMi41LDAuNSwzLjQsMS4zYzMtMi42LDYuOC00LjMsMTEtNC42YzAuNCwwLDAuNy0wLjEsMS4xLTAuMWMwLDAsMCwwLDAsMGMwLjEsMCwwLjEsMCwwLjIsMGMwLjQsMCwwLjksMCwxLjMsMC4xbC0wLjEtMC4xJiMxMDsmIzk7JiM5O0MyNS40LDIuNCwyNy43LDEsMzAuMywxIE0zMC4zLDBjLTIuNiwwLTUuMiwxLjMtNi43LDMuNWwtMC44LDBjLTAuNCwwLTAuNywwLTEuMSwwLjFsLTAuMSwwYy00LjEsMC4zLTcuOCwxLjctMTEsNC4zJiMxMDsmIzk7JiM5O2MtMS0wLjctMi4yLTEtMy40LTFjLTMuNSwwLTYuNCwyLjktNi40LDYuNGMwLDIuMiwxLjIsNC4zLDMsNS40Yy0wLjIsMC44LTAuMywxLjYtMC40LDIuNGwtMi44LDIuOEwwLDI0LjVsMC43LDAuN2wxLjEsMS4xJiMxMDsmIzk7JiM5O2wwLjcsMC43bDAuNy0wLjdsMC40LTAuNGMxLjUsOC43LDguOSwxNS40LDE3LjksMTZsMCwwbDEsMGwwLjIsMGwwLDBsMCwwaDBsMCwwbDAsMGMwLjUsMCwxLjEsMCwxLjgtMC4xYzAuMSwwLDAuMiwwLDAuMywwbDAuMSwwJiMxMDsmIzk7JiM5O2wwLjIsMGMwLjIsMCwwLjQsMCwwLjUtMC4xbDEtMC4ybDAsMGwwLjctMC4yYzAuMSwwLDAuMi0wLjEsMC4zLTAuMWMwLDAsMC4xLDAsMC4xLDBjMC40LTAuMSwwLjgtMC4yLDEuMS0wLjNsMC4xLDBsMC4xLDAmIzEwOyYjOTsmIzk7YzIuMi0wLjgsNC4yLTEuOSw1LjktMy4zYzEsMC42LDIuMSwwLjksMy4yLDAuOWMzLjUsMCw2LjQtMi45LDYuNC02LjRjMC0yLjItMS4xLTQuMS0yLjktNS4zYzAuMi0wLjksMC4zLTEuOCwwLjQtMi43bDMtM2wwLjctMC43JiMxMDsmIzk7JiM5O2wtMC43LTAuN2wtMS4xLTEuMWwtMC43LTAuN2wtMC43LDAuN0w0MiwxOS4yYy0wLjYtMy4xLTEuOS02LTMuOS04LjRsMi42LTIuNmwwLjctMC43bC0wLjEtMC4xbC0wLjYtMC43bC0xLjEtMS4xbC0wLjctMC43JiMxMDsmIzk7JiM5O2wtMC43LDAuN2wtMC4xLDAuMUMzNy4xLDIuNCwzMy45LDAsMzAuMywwTDMwLjMsMHoiLz4mI3hhOzwvZz4mI3hhOzxwYXRoIHN0eWxlPSJmaWxsOiMyQzU5Njc7IiBkPSJNMjUuNSwzOS4ybDAuMiwxLjZjLTAuOSwwLjItMS45LDAuMi0yLjksMC4yYy0wLjEsMC0wLjIsMC0wLjMsMGwwLTEuNiYjMTA7JiM5O0MyMy42LDM5LjQsMjQuNiwzOS40LDI1LjUsMzkuMiBNOS44LDM1LjVjMC43LDAuOCwxLjUsMS41LDIuNCwyLjFsMC45LTEuM2MtMC44LTAuNi0xLjUtMS4yLTIuMi0xLjlMOS44LDM1LjV6IE0xMy41LDM4LjQmIzEwOyYjOTtjMC45LDAuNSwxLjksMSwyLjksMS40bDAuNi0xLjVjLTAuOS0wLjMtMS44LTAuOC0yLjYtMS4zTDEzLjUsMzguNHogTTE4LjMsMzguOGwtMC40LDEuNWMwLjUsMC4xLDEsMC4zLDEuNSwwLjQmIzEwOyYjOTtjMC41LDAuMSwxLjEsMC4yLDEuNiwwLjJsMC4yLTEuNmMtMC41LTAuMS0xLTAuMS0xLjQtMC4yQzE5LjMsMzksMTguOCwzOC45LDE4LjMsMzguOCBNMjcsMzguOWwwLjQsMS41YzEtMC4zLDItMC42LDMtMUwyOS43LDM4JiMxMDsmIzk7QzI4LjgsMzguNCwyNy45LDM4LjcsMjcsMzguOSBNOC4zLDMwLjlMNywzMS42YzAuNSwwLjksMS4xLDEuOCwxLjgsMi42bDEuMi0xQzkuNCwzMi41LDguOCwzMS43LDguMywzMC45IE03LjEsMjcuOSYjMTA7JiM5O0M3LDI3LjgsNywyNy42LDYuOSwyNy41YzAtMC4xLTAuMS0wLjItMC4xLTAuM2MtMC4zLTEuMi0wLjUtMi41LTAuNi0zLjhsMi4zLDIuM2wxLjEtMS4xbC00LjEtNC4xbC00LjEsNC4xbDEuMSwxLjFsMi4xLTIuMSYjMTA7JiM5O2MwLjEsMS4zLDAuMiwyLjUsMC41LDMuN2wwLDBjMCwwLjEsMC4xLDAuMiwwLjEsMC40YzAsMC4xLDAuMSwwLjIsMC4xLDAuNGMwLDAuMiwwLjEsMC4zLDAuMiwwLjVjMCwwLjEsMC4xLDAuMiwwLjEsMC4zbDAsMCYjMTA7JiM5O2MwLjIsMC41LDAuNCwxLDAuNiwxLjVsMS40LTAuNkM3LjQsMjksNy4yLDI4LjUsNy4xLDI3LjkgTTEuOCwxMy4yYzAtMywyLjQtNS40LDUuNC01LjRjMywwLDUuNCwyLjQsNS40LDUuNGMwLDMtMi40LDUuNC01LjQsNS40JiMxMDsmIzk7QzQuMiwxOC42LDEuOCwxNi4yLDEuOCwxMy4yIE0zLjQsMTMuMmMwLDIuMSwxLjcsMy44LDMuOCwzLjhjMi4xLDAsMy44LTEuNywzLjgtMy44YzAtMi4xLTEuNy0zLjgtMy44LTMuOCYjMTA7JiM5O0M1LjEsOS40LDMuNCwxMS4xLDMuNCwxMy4yIE0xMi43LDkuNmMyLjYtMi4xLDUuOS0zLjQsOS40LTMuNmMwLjItMC42LDAuNC0xLjEsMC42LTEuNmMtNC4yLDAuMS04LDEuNS0xMS4xLDMuOSYjMTA7JiM5O0MxMiw4LjgsMTIuNCw5LjIsMTIuNyw5LjYgTTM3LjgsMTIuMWMtMC4zLDAuNS0wLjYsMS0wLjksMS40YzEuNSwyLjMsMi41LDUsMi43LDcuOWwtMi4xLTIuMWwtMS4xLDEuMWw0LjEsNC4xbDQuMS00LjFsLTEuMS0xLjEmIzEwOyYjOTtsLTIuMiwyLjJDNDEsMTgsMzkuOCwxNC43LDM3LjgsMTIuMSBNNDMuOCwzMi4xYzAsMy0yLjQsNS40LTUuNCw1LjRjLTMsMC01LjQtMi40LTUuNC01LjRjMC0zLDIuNC01LjQsNS40LTUuNCYjMTA7JiM5O0M0MS40LDI2LjcsNDMuOCwyOS4xLDQzLjgsMzIuMSBNNDIuMiwzMi4xYzAtMi4xLTEuNy0zLjgtMy44LTMuOGMtMi4xLDAtMy44LDEuNy0zLjgsMy44YzAsMi4xLDEuNywzLjgsMy44LDMuOCYjMTA7JiM5O0M0MC41LDM1LjksNDIuMiwzNC4yLDQyLjIsMzIuMSBNOS42LDEyLjZsLTEuMS0xLjFsLTEuOCwxLjhsLTAuOS0wLjlsLTEuMSwxLjFsMiwyTDkuNiwxMi42eiBNMzEuMiwyOGMwLDIuMS01LjMsMi43LTguMSwyLjcmIzEwOyYjOTtjLTIuOCwwLTgtMC42LTgtMi43VjE1LjZjMC0yLjQsNi43LTIuNSw4LTIuNWMwLjEsMCwwLjEsMCwwLjIsMGMwLjQsMC42LDAuOSwxLjEsMS41LDEuNmMtMC41LDAtMS4xLDAtMS43LDBjLTMuNSwwLTUuNywwLjYtNi4zLDEmIzEwOyYjOTtjMC43LDAuNCwyLjgsMSw2LjMsMWMxLjksMCwzLjMtMC4yLDQuNC0wLjRjMC45LDAuMywxLjgsMC41LDIuNywwLjVjMC4zLDAsMC43LDAsMS0wLjFWMjh6IE0yOS42LDIzLjhjMCwwLDAsMC4xLDAsMC4yaDAuMXYtMi43JiMxMDsmIzk7Yy0yLjEsMC45LTUuNiwwLjktNi41LDAuOWMtMC45LDAtNC4zLTAuMS02LjQtMC45djIuNWMwLjUsMC40LDIuNywxLDYuNCwxQzI3LjEsMjQuOSwyOS40LDI0LjEsMjkuNiwyMy44IE0xNi43LDE3LjN2Mi4yJiMxMDsmIzk7YzAuNSwwLjQsMi43LDEsNi40LDFjMy45LDAsNi4yLTAuNyw2LjUtMS4xYzAsMCwwLDAuMSwwLDAuMmgwLjF2LTIuNGMtMi4xLDAuOS01LjYsMC45LTYuNSwwLjlDMjIuMywxOC4yLDE4LjgsMTguMiwxNi43LDE3LjMmIzEwOyYjOTsgTTI5LjcsMjcuOXYtMi40Yy0yLjEsMC45LTUuNiwwLjktNi41LDAuOWMtMC45LDAtNC4zLTAuMS02LjQtMC45djIuM2MwLjQsMC40LDIuNiwxLjIsNi40LDEuMkMyNi43LDI5LjEsMjkuMiwyOC40LDI5LjcsMjcuOSYjMTA7JiM5OyBNMzkuNSwzMGwtMSwxbC0xLTFsLTEuMSwxLjFsMSwxbC0xLDFsMS4xLDEuMWwxLTFsMSwxbDEuMS0xLjFsLTEtMWwxLTFMMzkuNSwzMHogTTMzLjEsMzUuOWMtMC43LDAuNS0xLjQsMS0yLjEsMS40bDAuOCwxLjQmIzEwOyYjOTtjMC44LTAuNSwxLjctMSwyLjQtMS42QzMzLjgsMzYuOCwzMy40LDM2LjQsMzMuMSwzNS45IE0yNC4yLDQuNmwwLjksMC45YzAsMCwwLDAsMCwwbDAuMSwwLjFjMS0xLjgsMi45LTMsNS0zYzMsMCw1LjQsMi4zLDUuNyw1LjEmIzEwOyYjOTtsLTEuNC0xLjRsLTEuMSwxLjFsMCwwbDAsMGwzLjMsMy4zbDMuMy0zLjNsMCwwbDAsMGwtMS4xLTEuMWwtMS40LDEuNEMzNy4zLDQsMzQuMSwxLDMwLjMsMWMtMi42LDAtNC45LDEuNC02LjIsMy40TDI0LjIsNC42JiMxMDsmIzk7QzI0LjIsNC42LDI0LjIsNC42LDI0LjIsNC42IE0zMy4yLDExLjdMMzMuMiwxMS43TDMzLjIsMTEuN2wtMS43LDAuMWwtMC40LTEuNmgtMS45bC0wLjQsMS42aC0xLjZsMC0wLjFoMGwyLjItNy42aDEuNkwzMy4yLDExLjd6JiMxMDsmIzk7IE0yOS42LDguOGgxLjNMMzAuMyw2TDI5LjYsOC44eiBNMjAuNSw5LjFMMjAuNSw5LjFsMS4xLDEuMUwyMyw4LjhjMC4zLDMuNywzLjQsNi43LDcuMiw2LjdjMi42LDAsNC45LTEuNCw2LjItMy40TDM1LjMsMTEmIzEwOyYjOTtjLTEsMS44LTIuOSwzLTUsM2MtMi45LDAtNS40LTIuMi01LjctNS4xbDEuNCwxLjRsMS4xLTEuMWwwLDBsMCwwbC0zLjMtMy4zTDIwLjUsOS4xTDIwLjUsOS4xeiIvPiYjeGE7PC9zdmc+;" parent="JxKamzk-vWRHLU5l8SoQ-8" vertex="1">
          <mxGeometry width="46" height="42" as="geometry" />
        </mxCell>
        <mxCell id="JxKamzk-vWRHLU5l8SoQ-3" value="ATP" style="text;html=1;strokeColor=none;align=center;verticalAlign=middle;whiteSpace=wrap;rounded=0;dashed=1;dashPattern=1 4;fillColor=#F4F3EF;" parent="JxKamzk-vWRHLU5l8SoQ-8" vertex="1">
          <mxGeometry x="3" y="40" width="40" height="20" as="geometry" />
        </mxCell>
        <mxCell id="ijau3eZvz0aqAHEWGo63-9" value="" style="group;" parent="bEeLqk0NbVlQl-cdoFSH-10" vertex="1" connectable="0">
          <mxGeometry x="494" y="340" width="40" height="80" as="geometry" />
        </mxCell>
        <mxCell id="L4qmsvul19SNDsAjtxIQ-5" value="Internet&lt;br&gt;Gateway" style="text;html=1;strokeColor=none;align=center;verticalAlign=middle;whiteSpace=wrap;rounded=0;dashed=1;dashPattern=1 4;fillColor=#F4F3EF;" parent="ijau3eZvz0aqAHEWGo63-9" vertex="1">
          <mxGeometry y="40" width="40" height="40" as="geometry" />
        </mxCell>
        <mxCell id="IkITS7SIopfHW4Zz3dju-7" value="" style="shape=image;verticalLabelPosition=bottom;verticalAlign=top;imageAspect=0;aspect=fixed;image=data:image/svg+xml,PHN2ZyB4bWxucz0iaHR0cDovL3d3dy53My5vcmcvMjAwMC9zdmciIHhtbG5zOnhsaW5rPSJodHRwOi8vd3d3LnczLm9yZy8xOTk5L3hsaW5rIiB2ZXJzaW9uPSIxLjEiIGlkPSJMYXllcl8xIiB4PSIwcHgiIHk9IjBweCIgdmlld0JveD0iMCAwIDI3LjczODQyODExNTg0NDcyNyA0MiIgc3R5bGU9ImVuYWJsZS1iYWNrZ3JvdW5kOm5ldyAwIDAgMjcuNzQgNDI7IiB4bWw6c3BhY2U9InByZXNlcnZlIiB3aWR0aD0iMjcuNzM4NDI4MTE1ODQ0NzI3IiBoZWlnaHQ9IjQyIj4mI3hhOzxzdHlsZSB0eXBlPSJ0ZXh0L2NzcyI+JiN4YTsJLnN0MHtmaWxsOiNGRkZGRkY7fSYjeGE7CS5zdDF7ZmlsbDojMkM1OTY3O30mI3hhOzwvc3R5bGU+JiN4YTs8Zz4mI3hhOwk8Zz4mI3hhOwkJPHBhdGggY2xhc3M9InN0MCIgZD0iTTEzLjkxLDQxLjVjLTUuNjQsMC0xMC4yMi00LjU5LTEwLjIyLTEwLjIyYzAtNS4xNiwzLjkxLTkuNTMsOC45OS0xMC4xNHYtMy4xMmwtMS4xLDEuMDlsLTEuNzUtMS43NiYjMTA7JiM5OyYjOTsmIzk7bDIuODEtMi44SDAuNTRsMC4xLTEuMzNjMC4xNy0yLjMxLDEuNS00LjM0LDMuNTUtNS40MkM0LjUsNy42Myw0LjcyLDcuMzQsNC43OCw3YzAuMzMtMS42NywxLjQ1LTMuMDcsMy0zLjc1JiMxMDsmIzk7JiM5OyYjOTtjMC42NS0wLjI5LDEuMzctMC40NCwyLjA4LTAuNDRjMC4xNiwwLDAuMzIsMC4wMSwwLjQ4LDAuMDJjMC4wNCwwLDAuMDcsMC4wMSwwLjExLDAuMDFjMC4zMSwwLDAuNTgtMC4xMiwwLjc4LTAuMzMmIzEwOyYjOTsmIzk7JiM5O2MxLjE4LTEuMjgsMi44NS0yLjAxLDQuNTktMi4wMWMyLjM5LDAsNC41MywxLjMzLDUuNiwzLjQ3YzAuMTYsMC4zMiwwLjQ1LDAuNTQsMC44LDAuNjJjMC43MiwwLjE2LDEuNCwwLjQ0LDIuMDMsMC44NCYjMTA7JiM5OyYjOTsmIzk7YzIuODMsMS43OSwzLjgxLDUuNTEsMi4yMiw4LjQ2bC0wLjM1LDAuNjVIMTUuMTlsMi44MSwyLjhsLTEuNzUsMS43NmwtMS4xLTEuMDl2My4xMmM1LjA3LDAuNjIsOC45Nyw0Ljk5LDguOTcsMTAuMTQmIzEwOyYjOTsmIzk7JiM5O0MyNC4xMywzNi45MSwxOS41NSw0MS41LDEzLjkxLDQxLjV6Ii8+JiN4YTsJCTxwYXRoIGNsYXNzPSJzdDAiIGQ9Ik0xNS44MywxYzIuMiwwLDQuMTcsMS4yMyw1LjE1LDMuMmMwLjIzLDAuNDUsMC42NCwwLjc4LDEuMTQsMC44OWMwLjY2LDAuMTUsMS4yOSwwLjQxLDEuODcsMC43NyYjMTA7JiM5OyYjOTsmIzk7YzIuNjEsMS42NSwzLjUxLDUuMDgsMi4wNSw3LjhsLTAuMjEsMC4zOUgxNC4zNGMtMC4xMywwLTAuMjUtMC4wMS0wLjM4LTAuMDJsMy4zNCwzLjMybC0xLjA1LDEuMDVsLTEuNTktMS41OXYzLjQ0djEuMzMmIzEwOyYjOTsmIzk7JiM5O2M1LjAxLDAuMzgsOC45OCw0LjU4LDguOTgsOS42OWMwLDUuMzYtNC4zNiw5LjcyLTkuNzIsOS43MmMtNS4zNiwwLTkuNzItNC4zNi05LjcyLTkuNzJjMC01LjExLDMuOTctOS4zMSw4Ljk5LTkuNjl2LTEuMzN2LTMuNDQmIzEwOyYjOTsmIzk7JiM5O2wtMS41OSwxLjU5bC0xLjA1LTEuMDVsMy4zMi0zLjNINC4zOUgxLjA4bDAuMDYtMC44YzAuMTYtMi4xNCwxLjM5LTQuMDEsMy4yOC01LjAxQzQuODcsOCw1LjE4LDcuNTksNS4yNyw3LjEmIzEwOyYjOTsmIzk7JiM5O2MwLjMtMS41MSwxLjMxLTIuNzcsMi43MS0zLjM5YzAuNTktMC4yNiwxLjI0LTAuNCwxLjg4LTAuNGMwLjE1LDAsMC4yOSwwLjAxLDAuNDQsMC4wMmMwLjA1LDAsMC4xMSwwLjAxLDAuMTYsMC4wMSYjMTA7JiM5OyYjOTsmIzk7YzAuNDQsMCwwLjg1LTAuMTcsMS4xNS0wLjQ5QzEyLjY5LDEuNjcsMTQuMjMsMSwxNS44MywxIE0xNS44MywwYy0xLjg3LDAtMy42OCwwLjc5LTQuOTYsMi4xN2MtMC4xLDAuMTEtMC4yNSwwLjE3LTAuNDIsMC4xNyYjMTA7JiM5OyYjOTsmIzk7Yy0wLjAyLDAtMC4wNCwwLTAuMDcsMGMtMC4xOC0wLjAyLTAuMzUtMC4wMy0wLjUzLTAuMDNjLTAuNzgsMC0xLjU3LDAuMTctMi4yOSwwLjQ4Yy0xLjcsMC43NS0yLjkzLDIuMjktMy4yOCw0LjExJiMxMDsmIzk7JiM5OyYjOTtDNC4yNiw3LjEsNC4xMyw3LjI2LDMuOTUsNy4zNmMtMi4yLDEuMTYtMy42MywzLjM0LTMuODEsNS44MmwtMC4wNiwwLjhMMCwxNS4wNWgxLjA4aDMuMzJoNy4wNGwtMS42LDEuNTlsLTAuNzEsMC43MWwwLjcxLDAuNzEmIzEwOyYjOTsmIzk7JiM5O2wxLjA1LDEuMDVsMC43MSwwLjcxbDAuNi0wLjU5djEuMDR2MC40NGMtNS4xMSwwLjg0LTguOTksNS4zMi04Ljk5LDEwLjU4QzMuMTksMzcuMTksOCw0MiwxMy45MSw0MiYjMTA7JiM5OyYjOTsmIzk7YzUuOTEsMCwxMC43Mi00LjgxLDEwLjcyLTEwLjcyYzAtNS4yNi0zLjg3LTkuNzMtOC45OC0xMC41OHYtMC40NHYtMS4wNGwwLjYsMC41OWwwLjcxLTAuNzFsMS4wNS0xLjA1bDAuNzEtMC43MUwxOCwxNi42NCYjMTA7JiM5OyYjOTsmIzk7bC0xLjYtMS41OWg5LjQzaDAuNmwwLjI4LTAuNTNsMC4yMS0wLjM5YzEuNzEtMy4xOCwwLjY2LTcuMTktMi40LTkuMTJjLTAuNjgtMC40My0xLjQxLTAuNzMtMi4xOC0wLjkmIzEwOyYjOTsmIzk7JiM5O2MtMC4yLTAuMDQtMC4zNy0wLjE4LTAuNDYtMC4zNkMyMC43MywxLjQ0LDE4LjQxLDAsMTUuODMsMEwxNS44MywweiIvPiYjeGE7CTwvZz4mI3hhOwk8Zz4mI3hhOwkJPHBhdGggY2xhc3M9InN0MSIgZD0iTTIzLjk5LDUuODZjLTAuNTgtMC4zNi0xLjIxLTAuNjItMS44Ny0wLjc3Yy0wLjUtMC4xMS0wLjkxLTAuNDMtMS4xNC0wLjg5QzIwLDIuMjMsMTguMDMsMSwxNS44MywxJiMxMDsmIzk7JiM5OyYjOTtjLTEuNiwwLTMuMTQsMC42Ny00LjIyLDEuODVDMTEuMjgsMy4yLDEwLjgsMy4zOCwxMC4zLDMuMzNDOS41MSwzLjI2LDguNzEsMy4zOSw3Ljk4LDMuNzFDNi41OCw0LjMzLDUuNTcsNS41OSw1LjI3LDcuMSYjMTA7JiM5OyYjOTsmIzk7QzUuMTgsNy41OSw0Ljg3LDgsNC40Miw4LjI0Yy0xLjksMS0zLjEyLDIuODctMy4yOCw1LjAxbC0wLjA2LDAuOGgzLjMydjBoN2MtMC40OS0wLjQxLTAuODktMC45MS0xLjE4LTEuNDhINC44NHYwaC0yLjEmIzEwOyYjOTsmIzk7JiM5O2MwLjMyLTEuMjksMS4xNy0yLjM4LDIuMzctMy4wMkM1Ljk2LDkuMSw2LjU1LDguMzEsNi43Myw3LjM4YzAuMi0xLjAzLDAuODktMS45LDEuODUtMi4zMmMwLjUtMC4yMiwxLjA0LTAuMzEsMS41OC0wLjI2JiMxMDsmIzk7JiM5OyYjOTtjMC45NywwLjA5LDEuODktMC4yNiwyLjU0LTAuOTVjMC44MS0wLjg3LDEuOTUtMS4zNywzLjE0LTEuMzdjMS42MywwLDMuMSwwLjkxLDMuODMsMi4zOGMwLjQzLDAuODYsMS4yMSwxLjQ3LDIuMTUsMS42NyYjMTA7JiM5OyYjOTsmIzk7YzAuNDksMC4xMSwwLjk2LDAuMywxLjQsMC41OGMxLjg0LDEuMTYsMi41NCwzLjQ5LDEuNzIsNS40NkgxNC4zNGMtMS4yOSwwLTIuMzUtMS4wNy0yLjM1LTIuMzloLTEuNDhjMCwxLjk4LDEuNDgsMy42MSwzLjM3LDMuODQmIzEwOyYjOTsmIzk7JiM5O2wtMy4zNSwzLjMzbDEuMDUsMS4wNWwyLjMzLTIuMzJsMi4zMywyLjMybDEuMDUtMS4wNWwtMy4zNC0zLjMyYzAuMTIsMC4wMSwwLjI1LDAuMDIsMC4zOCwwLjAyaDExLjQ5bDAuMjEtMC4zOSYjMTA7JiM5OyYjOTsmIzk7QzI3LjUxLDEwLjkzLDI2LjYxLDcuNTEsMjMuOTksNS44NnoiLz4mI3hhOwkJPHJlY3QgeD0iMTMuMTgiIHk9IjE3LjY3IiBjbGFzcz0ic3QxIiB3aWR0aD0iMS40OCIgaGVpZ2h0PSIxLjQ4Ii8+JiN4YTsJCTxwYXRoIGNsYXNzPSJzdDEiIGQ9Ik0xNC42NiwyMS41OXYtMS4zM2gtMS40OHYxLjMzYy01LjAyLDAuMzgtOC45OSw0LjU4LTguOTksOS42OWMwLDUuMzYsNC4zNiw5LjcyLDkuNzIsOS43MiYjMTA7JiM5OyYjOTsmIzk7czkuNzItNC4zNiw5LjcyLTkuNzJDMjMuNjMsMjYuMTcsMTkuNjcsMjEuOTcsMTQuNjYsMjEuNTl6IE0xMy45MSwzOS41MmMtNC4yNiwwLTcuNzgtMy4yNS04LjItNy40MWgzLjQybC0xLjI0LDEuMjVsMS4wNSwxLjA0JiMxMDsmIzk7JiM5OyYjOTtsMi45My0yLjk0bC0yLjkzLTIuOTRsLTEuMDUsMS4wNGwxLjA2LDEuMDZINS43YzAuMzMtNC4yNCwzLjg5LTcuNTksOC4yMS03LjU5czcuODgsMy4zNSw4LjIxLDcuNTloLTMuNDRsMC45OS0xbC0xLjA1LTEuMDQmIzEwOyYjOTsmIzk7JiM5O2wtMi43OSwyLjgxbDIuOTMsMi45NGwxLjA1LTEuMDRsLTEuMTgtMS4xOGgzLjQ3QzIxLjY5LDM2LjI3LDE4LjE3LDM5LjUyLDEzLjkxLDM5LjUyeiIvPiYjeGE7CQk8cG9seWdvbiBjbGFzcz0ic3QxIiBwb2ludHM9IjE0LjU1LDM1LjU1IDE0LjU1LDI3LjAxIDE1LjcyLDI4LjE2IDE2Ljc2LDI3LjEyIDEzLjgyLDI0LjE5IDEwLjg5LDI3LjEyIDExLjkzLDI4LjE2IDEzLjA3LDI3LjAzICYjMTA7JiM5OyYjOTsmIzk7MTMuMDcsMzUuNTMgMTEuOTMsMzQuMzkgMTAuODksMzUuNDQgMTMuODIsMzguMzcgMTYuNzYsMzUuNDQgMTUuNzIsMzQuMzkgJiM5OyYjOTsiLz4mI3hhOwk8L2c+JiN4YTs8L2c+JiN4YTs8L3N2Zz4=;" parent="ijau3eZvz0aqAHEWGo63-9" vertex="1">
          <mxGeometry x="6" width="28" height="42" as="geometry" />
        </mxCell>
        <mxCell id="ijau3eZvz0aqAHEWGo63-10" value="" style="group;" parent="bEeLqk0NbVlQl-cdoFSH-10" vertex="1" connectable="0">
          <mxGeometry x="950.0049999999999" y="420" width="50.00999999999999" height="90" as="geometry" />
        </mxCell>
        <mxCell id="bEeLqk0NbVlQl-cdoFSH-75" value="&amp;nbsp;Object&lt;br&gt;Storage" style="text;html=1;strokeColor=none;align=center;verticalAlign=middle;whiteSpace=wrap;rounded=0;dashed=1;dashPattern=1 4;fillColor=#F4F3EF;movable=1;resizable=1;rotatable=1;deletable=1;editable=1;locked=0;connectable=1;" parent="ijau3eZvz0aqAHEWGo63-10" vertex="1">
          <mxGeometry y="40" width="50.01" height="50" as="geometry" />
        </mxCell>
        <mxCell id="IkITS7SIopfHW4Zz3dju-22" value="" style="shape=image;verticalLabelPosition=bottom;verticalAlign=top;imageAspect=0;aspect=fixed;image=data:image/svg+xml,PHN2ZyB4bWxucz0iaHR0cDovL3d3dy53My5vcmcvMjAwMC9zdmciIHhtbG5zOnhsaW5rPSJodHRwOi8vd3d3LnczLm9yZy8xOTk5L3hsaW5rIiB2ZXJzaW9uPSIxLjEiIGlkPSJMYXllcl8xIiB4PSIwcHgiIHk9IjBweCIgdmlld0JveD0iMCAwIDQyIDQyIiBzdHlsZT0iZW5hYmxlLWJhY2tncm91bmQ6bmV3IDAgMCA0MiA0MjsiIHhtbDpzcGFjZT0icHJlc2VydmUiIHdpZHRoPSI0MiIgaGVpZ2h0PSI0MiI+JiN4YTs8c3R5bGUgdHlwZT0idGV4dC9jc3MiPiYjeGE7CS5zdDB7ZmlsbDojRkZGRkZGO30mI3hhOwkuc3Qxe2ZpbGw6IzJDNTk2Nzt9JiN4YTs8L3N0eWxlPiYjeGE7PGc+JiN4YTsJPGc+JiN4YTsJCTxnPiYjeGE7CQkJPHBhdGggY2xhc3M9InN0MCIgZD0iTTIuNjcsNDEuNWMtMS4xOSwwLTIuMTctMC45Ny0yLjE3LTIuMTdWMi42N2MwLTEuMTksMC45Ny0yLjE3LDIuMTctMi4xN2gzNi42N2MxLjE5LDAsMi4xNywwLjk3LDIuMTcsMi4xNyYjMTA7JiM5OyYjOTsmIzk7JiM5O3YzNi42N2MwLDEuMi0wLjk3LDIuMTctMi4xNywyLjE3SDIuNjd6Ii8+JiN4YTsJCQk8cGF0aCBjbGFzcz0ic3QwIiBkPSJNMzkuMzMsMUM0MC4yNSwxLDQxLDEuNzUsNDEsMi42N3YyLjMydjQuODl2MjkuNDZjMCwwLjkyLTAuNzUsMS42Ny0xLjY3LDEuNjdIMi42N0MxLjc1LDQxLDEsNDAuMjUsMSwzOS4zMyYjMTA7JiM5OyYjOTsmIzk7JiM5O1Y5Ljg3VjQuOTlWMi42N0MxLDEuNzUsMS43NSwxLDIuNjcsMUgzOS4zMyBNMzkuMzMsMEgyLjY3QzEuMiwwLDAsMS4yLDAsMi42N3YyLjMydjQuODl2MjkuNDZDMCw0MC44LDEuMiw0MiwyLjY3LDQyaDM2LjY3JiMxMDsmIzk7JiM5OyYjOTsmIzk7QzQwLjgsNDIsNDIsNDAuOCw0MiwzOS4zM1Y5Ljg3VjQuOTlWMi42N0M0MiwxLjIsNDAuOCwwLDM5LjMzLDBMMzkuMzMsMHoiLz4mI3hhOwkJPC9nPiYjeGE7CQk8Zz4mI3hhOwkJCTxwYXRoIGNsYXNzPSJzdDEiIGQ9Ik0yNy4yNSwyNy44NWwxLjg4LTMuMjNsLTEuODUtMy4yM2gtMy43M2wtMS44OCwzLjIzbDEuODUsMy4yM0gyNy4yNXogTTI0LjQsMjIuODhoMi4wMmwxLDEuNzRsLTEuMDIsMS43NSYjMTA7JiM5OyYjOTsmIzk7JiM5O2gtMi4wMmwtMS0xLjc0TDI0LjQsMjIuODh6Ii8+JiN4YTsJCQk8cGF0aCBjbGFzcz0ic3QxIiBkPSJNMTcuODQsMzEuOTVjMCwxLjc1LDEuNDMsMy4xOCwzLjE4LDMuMThjMC44NywwLDEuNjgtMC4zNCwyLjI4LTAuOTVjMC41OS0wLjYsMC45MS0xLjQsMC45LTIuMjImIzEwOyYjOTsmIzk7JiM5OyYjOTtjMC0xLjc1LTEuNDMtMy4xOC0zLjE4LTMuMThDMTkuMjcsMjguNzcsMTcuODQsMzAuMiwxNy44NCwzMS45NXogTTIxLjAyLDMwLjI2YzAuOTQsMCwxLjcsMC43NiwxLjcsMS43MSYjMTA7JiM5OyYjOTsmIzk7JiM5O2MwLjAxLDAuNDQtMC4xNiwwLjg2LTAuNDcsMS4xN2MtMC4zMiwwLjMzLTAuNzYsMC41MS0xLjIyLDAuNTFjLTAuOTQsMC0xLjctMC43Ni0xLjctMS43QzE5LjMyLDMxLjAyLDIwLjA4LDMwLjI2LDIxLjAyLDMwLjI2eiIvPiYjeGE7CQkJPHBhdGggY2xhc3M9InN0MSIgZD0iTTE2LjgyLDIwLjc3bC0zLjcyLDYuNzZoNy40NEwxNi44MiwyMC43N3ogTTE2LjgyLDIzLjg1bDEuMjEsMi4yMWgtMi40M0wxNi44MiwyMy44NXoiLz4mI3hhOwkJCTxwYXRoIGNsYXNzPSJzdDEiIGQ9Ik04LjEzLDE3LjI5bDMuMzEsMjAuNjJoMTkuMzJsMy4wOS0yMC42MmgtMy4xNnYtMi44OWMwLTEuMi0wLjM3LTIuMTUtMS4xLTIuODImIzEwOyYjOTsmIzk7JiM5OyYjOTtjLTEuMTEtMS4wMS0yLjY1LTAuOTctMi45NC0wLjk1Yy0wLjA3LDAtMC4yOCwwLTAuNTksMHYtMC40OWMwLTAuNTEtMC40Mi0wLjkzLTAuOTMtMC45M2gtNy45NmMtMC41MSwwLTAuOTMsMC40Mi0wLjkzLDAuOTMmIzEwOyYjOTsmIzk7JiM5OyYjOTt2MC40OGMtMC41LDAtMC45NSwwLjAxLTEuMzMsMC4wMmMtMS4xNiwwLjAyLTIuMDcsMC4zOS0yLjY5LDEuMTFjLTAuOSwxLjAzLTAuODMsMi40Mi0wLjgsMi43MXYyLjg0SDguMTN6IE0yOS40OCwzNi40MkgxMi43JiMxMDsmIzk7JiM5OyYjOTsmIzk7TDkuODYsMTguNzdoMjIuMjZMMjkuNDgsMzYuNDJ6IE0xMi45LDE0LjMyYzAtMC4wMS0wLjEtMSwwLjQ1LTEuNjNjMC4zMy0wLjM4LDAuODctMC41OCwxLjU5LTAuNTljMC4zNy0wLjAxLDAuODEtMC4wMSwxLjMtMC4wMiYjMTA7JiM5OyYjOTsmIzk7JiM5O3YwLjYzYzAsMC41MSwwLjQyLDAuOTMsMC45MywwLjkzaDcuOTZjMC41MSwwLDAuOTMtMC40MiwwLjkzLTAuOTNWMTIuMWMwLjM3LDAsMC41OSwwLDAuNjEsMGwwLjA3LDBjMC4wMSwwLDEuMTUtMC4wOCwxLjg2LDAuNTcmIzEwOyYjOTsmIzk7JiM5OyYjOTtjMC40MSwwLjM4LDAuNjEsMC45NSwwLjYxLDEuNzJ2Mi44OUgxMi45di0yLjg3TDEyLjksMTQuMzJ6Ii8+JiN4YTsJCQk8cGF0aCBjbGFzcz0ic3QxIiBkPSJNMSwzOS4zM0MxLDQwLjI1LDEuNzUsNDEsMi42Nyw0MWgzNi42N2MwLjkyLDAsMS42Ny0wLjc1LDEuNjctMS42N1Y0Ljk5SDFWMzkuMzN6IE0yLjQ4LDYuNDdoMzcuMDR2MzIuODcmIzEwOyYjOTsmIzk7JiM5OyYjOTtjMCwwLjEtMC4wOCwwLjE5LTAuMTksMC4xOUgyLjY3Yy0wLjEsMC0wLjE5LTAuMDgtMC4xOS0wLjE5VjYuNDd6Ii8+JiN4YTsJCQk8cGF0aCBjbGFzcz0ic3QxIiBkPSJNMzkuMzMsMUgyLjY3QzEuNzUsMSwxLDEuNzUsMSwyLjY3djEuMjFoNDBWMi42N0M0MSwxLjc1LDQwLjI1LDEsMzkuMzMsMXoiLz4mI3hhOwkJPC9nPiYjeGE7CTwvZz4mI3hhOzwvZz4mI3hhOzwvc3ZnPg==;movable=1;resizable=1;rotatable=1;deletable=1;editable=1;locked=0;connectable=1;" parent="ijau3eZvz0aqAHEWGo63-10" vertex="1">
          <mxGeometry x="4.0049999999999955" width="42" height="42" as="geometry" />
        </mxCell>
        <mxCell id="2" value="" style="group" parent="bEeLqk0NbVlQl-cdoFSH-10" vertex="1" connectable="0">
          <mxGeometry x="650" y="341" width="40" height="69" as="geometry" />
        </mxCell>
        <mxCell id="IkITS7SIopfHW4Zz3dju-1" value="" style="shape=image;verticalLabelPosition=bottom;verticalAlign=top;imageAspect=0;aspect=fixed;image=data:image/svg+xml,PHN2ZyB4bWxucz0iaHR0cDovL3d3dy53My5vcmcvMjAwMC9zdmciIHhtbG5zOnhsaW5rPSJodHRwOi8vd3d3LnczLm9yZy8xOTk5L3hsaW5rIiB2ZXJzaW9uPSIxLjEiIGlkPSJMYXllcl8xIiB4PSIwcHgiIHk9IjBweCIgdmlld0JveD0iMCAwIDQyLjM4OTk5OTM4OTY0ODQ0IDQyIiBzdHlsZT0iZW5hYmxlLWJhY2tncm91bmQ6bmV3IDAgMCA0Mi4zOCA0MjsiIHhtbDpzcGFjZT0icHJlc2VydmUiIHdpZHRoPSI0Mi4zODk5OTkzODk2NDg0NCIgaGVpZ2h0PSI0MiI+JiN4YTs8c3R5bGUgdHlwZT0idGV4dC9jc3MiPiYjeGE7CS5zdDB7ZmlsbDojRkZGRkZGO30mI3hhOwkuc3Qxe2ZpbGw6bm9uZTt9JiN4YTsJLnN0MntmaWxsOiMyQzU5Njc7fSYjeGE7PC9zdHlsZT4mI3hhOzxnPiYjeGE7CTxnPiYjeGE7CQk8Zz4mI3hhOwkJCTxwYXRoIGNsYXNzPSJzdDAiIGQ9Ik0zNC4yLDQxLjV2LTIuNDhoMy4wMUwyMy4xNiwyNC45NmMtMC4zNyw0Ljc2LTEuNDYsOC45NS0zLjE3LDEyLjE4Yy0yLjEsMy41Ni00LjIyLDQuMjktNS42Myw0LjI5JiMxMDsmIzk7JiM5OyYjOTsmIzk7Yy0wLjI1LDAtMC41MS0wLjAyLTAuNzYtMC4wN2MtNC4wMy0wLjc0LTYuNDYtNi43OS03LjQtMTIuMjFjLTAuMzgtMi4wMy0wLjYyLTQuNDEtMC42Ny02LjkxSDAuNXYtMi40OGg1LjAzJiMxMDsmIzk7JiM5OyYjOTsmIzk7YzAuMDYtMi41OSwwLjMxLTUuMDcsMC43Mi03LjE3QzcuNTYsNS4yMywxMC42OSwwLjY0LDE0LjQyLDAuNmMyLjE4LDAsNi4wOCwxLjU5LDguMTgsMTIuMjNjMC4yNCwxLjM1LDAuNDEsMi43NSwwLjUzLDQuMiYjMTA7JiM5OyYjOTsmIzk7JiM5O0wzNy4xNywyLjk4SDM0LjJWMC41aDcuM3Y3LjNoLTIuNDhWNC42NEwyMy45LDE5Ljc2aDEyLjg4bC0yLTEuOTFsMS43MS0xLjhsNS4xNyw0LjkybC01LjE0LDUuMTRsLTEuNzUtMS43NWwyLjEyLTIuMTNIMjMuOTUmIzEwOyYjOTsmIzk7JiM5OyYjOTtsMTUuMDcsMTUuMDdWMzQuMmgyLjQ4djcuM0gzNC4yeiIvPiYjeGE7CQkJPHBhdGggY2xhc3M9InN0MCIgZD0iTTQxLDF2Ni4zaC0xLjQ4VjMuNDRMMjIuNzksMjAuMTdjMCwwLjAzLDAsMC4wNiwwLDAuMDloMTUuMjVsLTIuNTUtMi40M2wxLjAyLTEuMDdsNC40NCw0LjIzbC00LjQzLDQuNDMmIzEwOyYjOTsmIzk7JiM5OyYjOTtsLTEuMDUtMS4wNWwyLjYyLTIuNjJIMjIuNzljMCwwLjAyLDAsMC4wMywwLDAuMDVsMTYuNzIsMTYuNzJWMzQuN0g0MVY0MWgtNi4zdi0xLjQ4aDMuNzJsLTE1LjctMTUuNyYjMTA7JiM5OyYjOTsmIzk7JiM5O2MtMC4yNSw0LjU3LTEuMTcsOS4yOC0zLjE4LDEzLjA4bC0wLjAyLDAuMDRjLTEuODgsMy4xOS0zLjc1LDMuOTktNS4xNywzLjk5Yy0wLjI0LDAtMC40Ny0wLjAyLTAuNjgtMC4wNiYjMTA7JiM5OyYjOTsmIzk7JiM5O2MtMy43OC0wLjY5LTYuMTMtNi43OS02Ljk5LTExLjgxYy0wLjQyLTIuMi0wLjY0LTQuNzUtMC42OC03LjMySDF2LTEuNDhoNS4wMmMwLjA0LTIuNjcsMC4yOC01LjMxLDAuNzItNy41OCYjMTA7JiM5OyYjOTsmIzk7JiM5O0M4LDUuNTcsMTAuOTUsMS4xMywxNC40MiwxLjFjMC4wMSwwLDAuMDIsMCwwLjA0LDBjMiwwLDUuNjIsMS41NSw3LjY0LDExLjgybDAsMC4wMmMwLjI3LDEuNTYsMC40OSwzLjMzLDAuNiw1LjIxTDM4LjM4LDIuNDgmIzEwOyYjOTsmIzk7JiM5OyYjOTtIMzQuN1YxSDQxIE00MiwwaC0xaC02LjNoLTF2MXYxLjQ4djFoMWgxLjI2TDIzLjUzLDE1LjkyYy0wLjExLTEuMDktMC4yNi0yLjE0LTAuNDQtMy4xNUMyMS4wMiwyLjI5LDE3LjI2LDAuMSwxNC40NiwwLjEmIzEwOyYjOTsmIzk7JiM5OyYjOTtjLTQuMDksMC4wNC03LjMzLDQuNjgtOC43MSwxMi40MWMtMC4zOSwxLjk5LTAuNjMsNC4zMS0wLjcxLDYuNzVIMUgwdjF2MS40OHYxaDFoNC4wNGMwLjA4LDIuMzQsMC4zMSw0LjU4LDAuNjcsNi41MSYjMTA7JiM5OyYjOTsmIzk7JiM5O2MwLjk2LDUuNTcsMy41MSwxMS44Miw3LjgsMTIuNmMwLjI4LDAuMDUsMC41NywwLjA4LDAuODYsMC4wOGMxLjU0LDAsMy44NC0wLjc4LDYuMDMtNC40OGwwLTAuMDFsMC4wMy0wLjA1JiMxMDsmIzk7JiM5OyYjOTsmIzk7YzEuNjItMy4wNiwyLjY5LTYuOTQsMy4xNC0xMS4zM2wxMi40NSwxMi40NUgzNC43aC0xdjFWNDF2MWgxSDQxaDF2LTF2LTYuM3YtMWgtMWgtMS40OGgtMXYxdjEuNEwyNS4xNiwyMi43NGgxMC41M2wtMC45MiwwLjkyJiMxMDsmIzk7JiM5OyYjOTsmIzk7bC0wLjcxLDAuNzFsMC43MSwwLjcxbDEuMDUsMS4wNWwwLjcxLDAuNzFsMC43MS0wLjcxbDQuNDMtNC40M2wwLjcyLTAuNzJsLTAuNzQtMC43MWwtNC40NC00LjIzbC0wLjcyLTAuNjlsLTAuNjksMC43MiYjMTA7JiM5OyYjOTsmIzk7JiM5O2wtMS4wMiwxLjA3bC0wLjY5LDAuNzJsMC43MiwwLjY5bDAuNzQsMC43SDI1LjExTDM4LjUyLDUuODVWNy4zdjFoMUg0MWgxdi0xVjFWMEw0MiwweiIvPiYjeGE7CQk8L2c+JiN4YTsJCTxnPiYjeGE7CQkJPHBhdGggY2xhc3M9InN0MSIgZD0iTTE0LjQ2LDIuOTVjLTAuMDEsMC0wLjAxLDAtMC4wMiwwYy0xLjk3LDAuMDItNC42NiwzLjE4LTUuODgsMTAuMDZsMCwwLjAyYy0wLjQyLDIuMTctMC42NSw0LjY4LTAuNjksNy4yMyYjMTA7JiM5OyYjOTsmIzk7JiM5O2g4Ljg4bC0yLjc0LTIuNjFsMS4wMi0xLjA3bDQuNjIsNC40MWwtNC40Myw0LjQybC0xLjA1LTEuMDVsMi42Mi0yLjYySDcuODZjMC4wNCwyLjQ2LDAuMjUsNC44OSwwLjY1LDYuOTkmIzEwOyYjOTsmIzk7JiM5OyYjOTtjMC45Niw1LjU3LDMuMjcsOS45LDUuNTEsMTAuMzFjMC4xMSwwLjAyLDAuMjMsMC4wMywwLjM0LDAuMDNjMS40MywwLDIuNzEtMS42MywzLjU2LTMuMDZjMy4yOS02LjI1LDMuNTYtMTUuOTIsMi4zNi0yMi43NSYjMTA7JiM5OyYjOTsmIzk7JiM5O0MxOC43OCw1LjY2LDE2LjI5LDIuOTUsMTQuNDYsMi45NXoiLz4mI3hhOwkJCTxwYXRoIGNsYXNzPSJzdDIiIGQ9Ik00MSw3LjNWMWgtNi4zdjEuNDhoMy42N0wyMi43MSwxOC4xNWMtMC4xMS0xLjg4LTAuMzItMy42NS0wLjYtNS4yMWwwLTAuMDJDMjAuMDgsMi42NSwxNi40NiwxLjEsMTQuNDYsMS4xJiMxMDsmIzk7JiM5OyYjOTsmIzk7Yy0wLjAxLDAtMC4wMiwwLTAuMDQsMEMxMC45NSwxLjEzLDgsNS41Nyw2Ljc0LDEyLjY4Yy0wLjQ0LDIuMjctMC42OCw0LjkxLTAuNzIsNy41OEgxdjEuNDhoNS4wMWMwLjA0LDIuNTgsMC4yNiw1LjEyLDAuNjgsNy4zMiYjMTA7JiM5OyYjOTsmIzk7JiM5O2MwLjg2LDUuMDEsMy4yMSwxMS4xMSw2Ljk5LDExLjgxYzAuMjEsMC4wNCwwLjQ0LDAuMDYsMC42OCwwLjA2YzEuNDEsMCwzLjI4LTAuOCw1LjE3LTMuOTlsMC4wMi0wLjA0JiMxMDsmIzk7JiM5OyYjOTsmIzk7YzIuMDEtMy44LDIuOTMtOC41MSwzLjE4LTEzLjA4bDE1LjcsMTUuN0gzNC43VjQxSDQxdi02LjNoLTEuNDh2My44MUwyMi43OSwyMS43OWMwLTAuMDIsMC0wLjAzLDAtMC4wNUgzOC4xbC0yLjYyLDIuNjImIzEwOyYjOTsmIzk7JiM5OyYjOTtsMS4wNSwxLjA1bDQuNDMtNC40M2wtNC40NC00LjIzbC0xLjAyLDEuMDdsMi41NSwyLjQzSDIyLjc5YzAtMC4wMywwLTAuMDYsMC0wLjA5TDM5LjUyLDMuNDRWNy4zSDQxeiBNMTcuOTIsMzYuMDImIzEwOyYjOTsmIzk7JiM5OyYjOTtjLTAuODUsMS40My0yLjEzLDMuMDYtMy41NiwzLjA2Yy0wLjExLDAtMC4yMy0wLjAxLTAuMzQtMC4wM2MtMi4yMy0wLjQxLTQuNTUtNC43NC01LjUxLTEwLjMxYy0wLjQtMi4xMS0wLjYxLTQuNTQtMC42NS02Ljk5JiMxMDsmIzk7JiM5OyYjOTsmIzk7aDguOTRsLTIuNjIsMi42MmwxLjA1LDEuMDVsNC40My00LjQybC00LjYyLTQuNDFsLTEuMDIsMS4wN2wyLjc0LDIuNjFINy44NmMwLjA0LTIuNTUsMC4yNy01LjA2LDAuNjktNy4yM2wwLTAuMDImIzEwOyYjOTsmIzk7JiM5OyYjOTtjMS4yMi02Ljg5LDMuOTEtMTAuMDQsNS44OC0xMC4wNmMwLjAxLDAsMC4wMSwwLDAuMDIsMGMxLjgzLDAsNC4zMiwyLjcxLDUuODMsMTAuMzJDMjEuNDgsMjAuMDksMjEuMjEsMjkuNzcsMTcuOTIsMzYuMDJ6Ii8+JiN4YTsJCTwvZz4mI3hhOwk8L2c+JiN4YTs8L2c+JiN4YTs8L3N2Zz4=;" parent="2" vertex="1">
          <mxGeometry width="40" height="40" as="geometry" />
        </mxCell>
        <mxCell id="bEeLqk0NbVlQl-cdoFSH-71" value="Load Balancer" style="text;html=1;strokeColor=none;align=center;verticalAlign=middle;rounded=0;dashed=1;dashPattern=1 4;fontColor=#000000;fillColor=#F4F3EF;whiteSpace=wrap;" parent="2" vertex="1">
          <mxGeometry y="39" width="40" height="30" as="geometry" />
        </mxCell>
        <mxCell id="ijau3eZvz0aqAHEWGo63-8" value="" style="group;" parent="bEeLqk0NbVlQl-cdoFSH-10" vertex="1" connectable="0">
          <mxGeometry x="820" y="340" width="42" height="70" as="geometry" />
        </mxCell>
        <mxCell id="IkITS7SIopfHW4Zz3dju-14" value="" style="shape=image;verticalLabelPosition=bottom;verticalAlign=top;imageAspect=0;aspect=fixed;image=data:image/svg+xml,PHN2ZyB4bWxucz0iaHR0cDovL3d3dy53My5vcmcvMjAwMC9zdmciIHhtbG5zOnhsaW5rPSJodHRwOi8vd3d3LnczLm9yZy8xOTk5L3hsaW5rIiB2ZXJzaW9uPSIxLjEiIGlkPSJMYXllcl8xIiB4PSIwcHgiIHk9IjBweCIgdmlld0JveD0iMCAwIDQyIDQyIiBzdHlsZT0iZW5hYmxlLWJhY2tncm91bmQ6bmV3IDAgMCA0MiA0MjsiIHhtbDpzcGFjZT0icHJlc2VydmUiIHdpZHRoPSI0MiIgaGVpZ2h0PSI0MiI+JiN4YTs8c3R5bGUgdHlwZT0idGV4dC9jc3MiPiYjeGE7CS5zdDB7ZmlsbDojRkZGRkZGO30mI3hhOwkuc3Qxe2ZpbGw6IzJDNTk2Nzt9JiN4YTs8L3N0eWxlPiYjeGE7PGc+JiN4YTsJPGc+JiN4YTsJCTxwYXRoIGNsYXNzPSJzdDAiIGQ9Ik0yLjY3LDQxLjVjLTEuMTksMC0yLjE3LTAuOTctMi4xNy0yLjE3VjIuNjdjMC0xLjE5LDAuOTctMi4xNywyLjE3LTIuMTdoMzYuNjdjMS4xOSwwLDIuMTcsMC45NywyLjE3LDIuMTcmIzEwOyYjOTsmIzk7JiM5O3YzNi42N2MwLDEuMTktMC45NywyLjE3LTIuMTcsMi4xN0gyLjY3eiIvPiYjeGE7CQk8cGF0aCBjbGFzcz0ic3QwIiBkPSJNMzkuMzMsMUM0MC4yNSwxLDQxLDEuNzUsNDEsMi42N3YzNi42N2MwLDAuOTItMC43NSwxLjY3LTEuNjcsMS42N0gyLjY3QzEuNzUsNDEsMSw0MC4yNSwxLDM5LjMzVjIuNjcmIzEwOyYjOTsmIzk7JiM5O0MxLDEuNzUsMS43NSwxLDIuNjcsMUgzOS4zMyBNMzkuMzMsMEgyLjY3QzEuMiwwLDAsMS4yLDAsMi42N3YzNi42N0MwLDQwLjgsMS4yLDQyLDIuNjcsNDJoMzYuNjdDNDAuOCw0Miw0Miw0MC44LDQyLDM5LjMzVjIuNjcmIzEwOyYjOTsmIzk7JiM5O0M0MiwxLjIsNDAuOCwwLDM5LjMzLDBMMzkuMzMsMHoiLz4mI3hhOwk8L2c+JiN4YTsJPGc+JiN4YTsJCTxwYXRoIGNsYXNzPSJzdDEiIGQ9Ik0zOS4zMywxSDIuNjdDMS43NSwxLDEsMS43NSwxLDIuNjd2MzYuNjdDMSw0MC4yNSwxLjc1LDQxLDIuNjcsNDFoMzYuNjdjMC45MiwwLDEuNjctMC43NSwxLjY3LTEuNjdWMi42NyYjMTA7JiM5OyYjOTsmIzk7QzQxLDEuNzUsNDAuMjUsMSwzOS4zMywxeiBNMzkuNTIsMzkuMzNjMCwwLjEtMC4wOCwwLjE5LTAuMTksMC4xOUgyLjY3Yy0wLjEsMC0wLjE5LTAuMDgtMC4xOS0wLjE5VjIuNjcmIzEwOyYjOTsmIzk7JiM5O2MwLTAuMSwwLjA4LTAuMTksMC4xOS0wLjE5aDM2LjY3YzAuMSwwLDAuMTksMC4wOCwwLjE5LDAuMTlWMzkuMzN6Ii8+JiN4YTsJCTxwYXRoIGNsYXNzPSJzdDEiIGQ9Ik02LjU2LDM1LjQ0aDI5LjA3di04Ljg5SDYuNTZWMzUuNDR6IE04LjA0LDI4LjA0aDI2LjExdjUuOTNIOC4wNFYyOC4wNHoiLz4mI3hhOwkJPGNpcmNsZSBjbGFzcz0ic3QxIiBjeD0iMzAuODEiIGN5PSIzMSIgcj0iMS4xMSIvPiYjeGE7CQk8cGF0aCBjbGFzcz0ic3QxIiBkPSJNMTUuNDQsNi41Nkg2LjU2djguODloOC44OVY2LjU2eiBNMTMuOTYsMTMuOTZIOC4wNFY4LjA0aDUuOTNWMTMuOTZ6Ii8+JiN4YTsJCTxwYXRoIGNsYXNzPSJzdDEiIGQ9Ik0yNS40NCw2LjU2aC04Ljg5djguODloOC44OVY2LjU2eiBNMjMuOTYsMTMuOTZoLTUuOTNWOC4wNGg1LjkzVjEzLjk2eiIvPiYjeGE7CQk8cGF0aCBjbGFzcz0ic3QxIiBkPSJNMTUuNDQsMTYuNTZINi41NnY4Ljg5aDguODlWMTYuNTZ6IE0xMy45NiwyMy45Nkg4LjA0di01LjkzaDUuOTNWMjMuOTZ6Ii8+JiN4YTsJCTxwYXRoIGNsYXNzPSJzdDEiIGQ9Ik0yNS40NCwxNi41NmgtOC44OXY4Ljg5aDguODlWMTYuNTZ6IE0yMy45NiwyMy45NmgtNS45M3YtNS45M2g1LjkzVjIzLjk2eiIvPiYjeGE7CQk8cGF0aCBjbGFzcz0ic3QxIiBkPSJNMzUuNDQsNi41NmgtOC44OXY4Ljg5aDguODlWNi41NnogTTMzLjk2LDEzLjk2aC01LjkzVjguMDRoNS45M1YxMy45NnoiLz4mI3hhOwkJPHBhdGggY2xhc3M9InN0MSIgZD0iTTM1LjQ0LDE2LjU2aC04Ljg5djguODloOC44OVYxNi41NnogTTMzLjk2LDIzLjk2aC01Ljkzdi01LjkzaDUuOTNWMjMuOTZ6Ii8+JiN4YTsJPC9nPiYjeGE7PC9nPiYjeGE7PC9zdmc+;" parent="ijau3eZvz0aqAHEWGo63-8" vertex="1">
          <mxGeometry width="42" height="42" as="geometry" />
        </mxCell>
        <mxCell id="bEeLqk0NbVlQl-cdoFSH-80" value="Web&lt;br&gt;Server" style="text;html=1;strokeColor=none;align=center;verticalAlign=middle;whiteSpace=wrap;rounded=0;dashed=1;dashPattern=1 4;fillColor=#F4F3EF;" parent="ijau3eZvz0aqAHEWGo63-8" vertex="1">
          <mxGeometry x="1" y="40" width="40" height="30" as="geometry" />
        </mxCell>
        <mxCell id="o463Dz1BxFJm6jyn4p84-63" value="Internet" parent="0" />
        <mxCell id="ijau3eZvz0aqAHEWGo63-2" value="" style="ellipse;shape=cloud;whiteSpace=wrap;html=1;" parent="o463Dz1BxFJm6jyn4p84-63" vertex="1">
          <mxGeometry x="290" y="320" width="120" height="80" as="geometry" />
        </mxCell>
      </root>
    </mxGraphModel>
  </diagram>
</mxfile>
